<?xml version="1.0" standalone="no"?>
<!DOCTYPE svg PUBLIC "-//W3C//DTD SVG 20010904//EN"
 "http://www.w3.org/TR/2001/REC-SVG-20010904/DTD/svg10.dtd">
<svg version="1.0" xmlns="http://www.w3.org/2000/svg"
 width="355.000000pt" height="356.000000pt" viewBox="0 0 355.000000 356.000000"
 preserveAspectRatio="xMidYMid meet">
<metadata>
Created by potrace 1.16, written by Peter Selinger 2001-2019
</metadata>
<g transform="translate(0.000000,356.000000) scale(0.100000,-0.100000)"
fill="#000000" stroke="none">
<path d="M1626 3550 c-16 -5 -51 -10 -78 -11 -27 -2 -51 -6 -54 -10 -2 -4 -38
-10 -79 -14 -41 -4 -75 -11 -75 -16 0 -5 -21 -9 -48 -9 -27 0 -57 -7 -70 -16
-14 -10 -32 -14 -48 -10 -16 4 -23 2 -22 -5 2 -7 -19 -19 -47 -28 -27 -8 -54
-21 -58 -28 -4 -7 -19 -13 -33 -13 -14 0 -35 -11 -47 -23 -12 -13 -28 -22 -36
-19 -8 3 -11 0 -7 -7 5 -7 -2 -11 -18 -11 -15 0 -36 -12 -51 -27 -14 -15 -25
-24 -25 -20 0 5 -7 2 -15 -7 -9 -8 -23 -12 -32 -9 -11 4 -14 3 -9 -5 5 -8 2
-10 -8 -6 -11 4 -16 0 -16 -10 0 -9 -8 -16 -20 -16 -11 0 -19 -4 -17 -9 1 -5
-10 -20 -25 -34 -16 -14 -28 -22 -28 -17 0 6 -5 10 -11 10 -6 0 -8 -7 -5 -15
3 -9 -1 -18 -10 -22 -12 -4 -13 -8 -3 -14 9 -5 4 -10 -17 -15 -47 -11 -74 -32
-74 -59 0 -20 -5 -25 -27 -26 -16 0 -22 -3 -15 -6 6 -2 9 -9 6 -14 -3 -6 -12
-5 -22 3 -13 11 -14 11 -8 0 9 -15 -11 -62 -26 -62 -13 0 -44 -32 -51 -53 -4
-9 -18 -22 -32 -27 -14 -5 -25 -12 -25 -15 0 -4 4 -4 9 0 5 3 13 1 16 -5 4 -6
3 -9 -2 -8 -16 4 -53 -14 -48 -23 4 -5 1 -9 -4 -9 -6 0 -11 -11 -11 -25 0 -14
-4 -25 -10 -25 -5 0 -10 -9 -10 -19 0 -17 -25 -36 -43 -33 -11 3 -9 -12 4 -25
8 -8 7 -13 -2 -18 -8 -6 -10 -4 -4 5 5 8 4 11 -3 6 -6 -4 -9 -13 -6 -21 4 -8
-8 -36 -25 -62 -17 -25 -31 -52 -31 -59 0 -7 -4 -14 -9 -16 -5 -1 -11 -20 -14
-42 -3 -21 -10 -42 -17 -46 -6 -4 -10 -11 -8 -16 1 -5 -3 -19 -10 -32 -7 -12
-10 -28 -6 -34 4 -7 3 -8 -4 -4 -8 5 -12 0 -12 -13 0 -12 -4 -21 -8 -21 -4 0
-9 -8 -10 -17 -1 -10 -4 -27 -6 -38 -2 -11 -5 -39 -5 -62 -1 -34 -5 -43 -19
-43 -14 0 -18 -9 -19 -42 0 -24 -5 -72 -10 -107 -18 -113 -3 -519 19 -532 6
-4 8 -11 4 -17 -3 -5 1 -23 9 -39 8 -17 16 -56 16 -87 1 -31 6 -56 10 -56 5 0
9 -11 9 -25 0 -14 9 -43 20 -65 11 -22 20 -46 20 -55 0 -8 3 -15 8 -15 12 0
44 -89 38 -107 -6 -14 -4 -14 11 -2 10 7 15 9 11 5 -4 -5 1 -21 12 -36 11 -16
20 -40 20 -55 0 -25 2 -26 17 -14 10 8 14 9 10 2 -4 -6 -3 -14 3 -18 5 -3 10
-17 10 -31 0 -14 7 -27 15 -30 8 -4 15 -12 15 -20 0 -8 4 -14 9 -14 5 0 7 -8
4 -19 -3 -10 1 -22 8 -26 8 -6 10 -4 4 5 -5 9 -4 11 3 6 9 -5 9 -13 0 -29 -10
-20 -10 -21 5 -8 11 9 17 10 17 2 0 -6 3 -10 8 -10 22 4 32 -3 32 -22 0 -11
17 -36 38 -56 20 -19 31 -32 25 -29 -14 8 -69 -41 -59 -51 3 -4 14 4 25 15 10
12 23 22 29 22 15 0 57 -41 65 -63 4 -9 12 -16 19 -15 7 2 17 -7 23 -19 5 -13
15 -23 21 -23 7 0 14 -9 17 -21 4 -15 12 -20 29 -17 18 2 23 -1 22 -19 -1 -16
4 -23 17 -23 9 0 24 -6 31 -13 7 -7 21 -16 31 -20 10 -4 15 -11 12 -17 -3 -5
3 -10 14 -10 12 0 21 -4 21 -10 0 -5 3 -9 8 -9 20 3 32 -2 32 -16 0 -8 9 -19
20 -25 11 -6 18 -15 15 -21 -4 -5 -3 -9 2 -8 4 1 13 0 18 -1 13 -4 35 -7 63
-9 14 0 22 -7 22 -19 0 -11 8 -18 22 -19 12 -1 28 -10 37 -19 15 -17 15 -17
-4 -4 -17 12 -18 12 -7 0 7 -8 25 -15 40 -16 57 -1 69 -5 90 -25 12 -11 27
-17 34 -13 7 4 8 3 4 -4 -4 -7 -1 -12 8 -12 9 0 16 -3 16 -8 0 -4 10 -13 21
-21 20 -11 21 -11 15 4 -5 14 -2 16 16 12 13 -4 42 -9 66 -13 26 -4 42 -12 42
-20 0 -10 13 -14 40 -14 22 0 40 -4 40 -10 0 -6 32 -8 79 -7 48 2 85 -1 94 -8
11 -8 71 -10 199 -7 213 4 219 5 234 14 6 4 41 8 77 9 37 1 67 5 67 9 0 4 11
5 25 2 18 -3 25 0 25 12 0 18 -2 17 60 21 25 1 61 4 80 5 l35 2 -30 8 c-28 7
-26 8 15 9 33 1 41 4 30 11 -13 8 -12 10 4 10 11 0 27 7 36 15 9 8 32 16 52
17 20 2 34 7 30 12 -3 5 5 7 17 3 17 -4 20 -2 12 7 -11 13 -9 14 38 18 11 1
18 5 15 9 -6 11 24 31 50 33 18 1 22 4 14 14 -6 6 -9 12 -7 13 2 0 13 2 24 4
11 1 29 6 40 11 18 7 18 6 6 -9 -7 -9 -17 -15 -21 -12 -5 3 -12 0 -16 -7 -4
-7 -4 -10 1 -6 4 4 15 2 24 -4 9 -7 13 -9 9 -4 -4 5 1 20 12 34 11 13 17 28
14 33 -3 5 0 10 5 10 6 1 15 2 21 3 17 2 70 50 70 63 0 8 13 13 35 13 25 0 33
4 29 14 -8 21 36 66 64 66 14 0 23 3 19 6 -7 8 25 44 40 44 6 0 15 9 18 20 3
11 10 20 16 20 5 0 15 16 24 36 8 19 19 33 25 29 5 -3 15 5 21 19 7 14 16 23
21 20 5 -3 8 -2 7 3 -5 27 3 43 22 43 12 0 17 4 13 11 -3 6 4 21 17 33 24 21
42 47 56 76 4 8 14 22 22 32 9 10 16 22 17 26 2 19 31 72 37 67 4 -3 5 -2 2 2
-3 3 4 20 15 38 11 18 16 36 12 40 -4 5 -2 5 4 2 14 -8 24 14 24 54 0 18 4 28
10 24 6 -3 10 2 10 12 0 28 18 51 28 36 4 -7 9 10 10 38 1 28 5 56 9 62 3 6 8
33 10 61 5 64 22 113 34 94 6 -9 9 -9 9 -1 0 6 -4 15 -10 18 -5 3 -10 13 -10
21 0 8 4 13 9 10 12 -8 19 161 16 369 -3 186 -9 262 -24 305 -11 30 -23 92
-26 141 -2 22 -13 47 -29 64 -14 15 -25 30 -24 34 1 3 -4 19 -10 34 -7 16 -12
36 -12 45 0 9 -4 24 -10 32 -5 9 -5 19 2 27 8 10 7 12 -6 7 -10 -4 -16 -1 -16
9 0 24 -59 129 -96 170 -21 24 -34 50 -35 68 -2 41 -3 46 -11 55 -4 3 -5 -3
-3 -15 2 -12 0 -19 -6 -16 -5 4 -9 13 -9 21 0 8 -5 14 -11 14 -5 0 -7 5 -4 10
3 6 -1 13 -9 16 -19 7 -58 73 -50 85 3 5 2 9 -3 8 -27 -5 -53 3 -53 15 0 20
-43 66 -61 66 -8 0 -20 9 -27 21 -8 12 -9 18 -3 14 6 -3 11 -1 11 4 0 6 -7 11
-15 11 -8 0 -15 7 -15 15 0 9 -9 15 -22 15 -21 0 -64 19 -45 20 5 0 1 7 -7 16
-9 8 -14 20 -11 25 5 8 -16 14 -37 10 -5 0 -8 6 -8 14 0 8 -5 15 -11 15 -15 0
-39 26 -31 34 3 4 -1 4 -11 0 -9 -3 -17 -1 -17 4 0 6 -14 17 -30 26 -20 9 -28
10 -24 3 3 -7 -1 -4 -9 6 -8 9 -20 17 -26 17 -7 0 -10 4 -6 9 3 5 1 12 -5 16
-6 4 -7 11 -4 17 4 7 2 8 -5 4 -6 -4 -8 -13 -4 -19 4 -7 0 -7 -10 1 -9 8 -21
11 -26 8 -5 -4 -12 -2 -16 4 -3 5 -13 10 -21 10 -18 0 -46 25 -38 33 4 3 -10
9 -30 12 -20 4 -36 11 -36 16 0 5 -3 8 -7 8 -5 -1 -10 0 -13 1 -3 1 -18 4 -35
6 -16 3 -36 10 -43 17 -8 6 -20 12 -28 13 -19 3 -74 28 -74 34 0 3 -12 6 -27
6 -49 3 -106 12 -173 30 -36 9 -101 18 -145 20 -44 1 -129 5 -190 8 -60 2
-123 1 -139 -4z m304 -73 c8 -4 24 -5 35 -4 11 1 19 -3 18 -8 -1 -6 17 -11 40
-11 78 -1 157 -8 157 -15 0 -4 16 -7 35 -7 36 0 95 -21 95 -34 0 -5 5 -8 11
-8 5 0 7 6 3 13 -4 6 3 2 15 -10 12 -13 33 -23 46 -23 13 0 27 -5 30 -10 4 -6
10 -8 15 -5 13 8 80 -27 73 -38 -4 -6 3 -8 16 -4 16 4 26 -1 38 -20 10 -15 23
-23 33 -20 21 5 50 -10 50 -26 0 -8 -4 -6 -11 3 -9 13 -10 13 -6 0 2 -8 13
-15 25 -14 14 0 18 -4 14 -14 -4 -10 -1 -13 7 -8 7 5 20 1 29 -7 9 -8 32 -20
50 -28 17 -8 32 -17 32 -21 0 -5 8 -8 18 -8 14 0 15 -2 2 -10 -13 -8 -12 -10
3 -10 10 0 15 -4 12 -10 -3 -6 4 -10 17 -10 29 -1 53 -19 62 -48 5 -14 13 -21
21 -18 7 2 16 -2 19 -10 3 -9 10 -13 14 -10 5 3 9 -1 9 -9 0 -8 -5 -12 -10 -8
-5 3 -4 -4 2 -16 9 -16 9 -21 -1 -21 -7 0 -4 -6 6 -12 14 -8 24 -8 37 0 15 10
22 7 38 -14 11 -14 23 -34 26 -45 4 -10 10 -19 15 -19 19 0 39 -32 36 -59 -2
-17 2 -28 10 -28 6 0 10 6 8 12 -3 6 2 12 10 12 8 0 13 -4 10 -8 -2 -4 3 -12
12 -17 9 -5 23 -24 30 -41 7 -18 9 -29 4 -26 -6 3 -10 1 -10 -4 0 -6 9 -11 19
-11 13 0 21 -8 23 -22 2 -13 8 -22 13 -21 13 2 39 -45 40 -75 1 -12 12 -32 24
-43 12 -11 19 -24 16 -29 -3 -4 2 -10 10 -14 8 -3 15 -13 15 -23 1 -10 7 -29
14 -43 12 -21 12 -26 -3 -37 -15 -11 -15 -12 2 -13 10 0 15 -4 12 -10 -3 -5 1
-10 9 -10 10 0 13 -6 10 -15 -4 -9 2 -23 13 -33 21 -18 34 -70 35 -134 0 -21
4 -35 9 -32 5 3 9 -12 9 -33 0 -21 4 -33 8 -26 4 6 7 -14 7 -45 -1 -32 4 -60
9 -64 5 -4 11 -85 13 -188 2 -141 0 -194 -12 -233 -8 -28 -15 -68 -15 -90 0
-21 -6 -45 -14 -53 -13 -12 -34 -143 -28 -167 1 -5 -2 -6 -8 -2 -5 3 -10 -1
-10 -10 0 -9 -4 -13 -10 -10 -5 3 -10 -3 -10 -14 0 -13 -7 -21 -17 -21 -12 0
-14 -3 -6 -8 9 -6 9 -18 2 -47 -6 -22 -13 -52 -16 -67 -3 -15 -16 -38 -28 -51
-13 -12 -31 -43 -41 -67 -10 -25 -28 -56 -41 -70 -13 -14 -23 -34 -24 -45 0
-20 0 -20 -9 0 -6 17 -9 14 -15 -17 -6 -29 -12 -38 -29 -39 -11 0 -15 -3 -8
-6 20 -8 14 -20 -14 -27 -15 -4 -24 -10 -20 -13 3 -3 1 -12 -5 -20 -6 -7 -8
-13 -5 -13 4 0 2 -9 -4 -21 -7 -11 -18 -18 -25 -15 -7 2 -16 -2 -19 -10 -3 -9
-11 -12 -16 -9 -6 4 -10 3 -9 -2 6 -24 -34 -78 -50 -68 -6 3 -8 -3 -6 -13 2
-13 -4 -18 -22 -20 -14 -1 -31 -6 -38 -12 -6 -5 -16 -6 -20 -2 -5 4 -5 1 -1
-6 6 -10 11 -10 22 -1 8 6 14 9 14 5 0 -3 0 -9 0 -13 0 -8 -4 -9 -36 -12 -8 0
-12 -5 -9 -11 3 -5 1 -10 -6 -10 -7 0 -9 -3 -6 -7 8 -7 -51 -53 -67 -53 -6 0
-5 4 2 9 11 7 11 9 -2 14 -19 8 -28 -4 -16 -23 9 -15 -13 -43 -38 -46 -8 -2
-18 -8 -22 -15 -4 -6 -12 -9 -18 -5 -5 3 -13 -5 -16 -18 -7 -27 -38 -41 -101
-46 l-20 -1 20 -8 c19 -8 19 -8 -5 -16 -14 -4 -34 -16 -46 -26 -11 -10 -33
-20 -50 -22 -35 -4 -80 -22 -88 -36 -4 -6 -12 -8 -19 -5 -7 2 -22 -4 -34 -15
-11 -11 -37 -22 -58 -25 -20 -4 -44 -10 -53 -15 -8 -5 -28 -5 -44 0 -19 5 -26
4 -22 -3 4 -6 -1 -8 -16 -3 -15 5 -20 4 -16 -4 6 -10 -23 -15 -71 -14 -7 1
-13 -3 -13 -8 0 -5 -7 -9 -15 -9 -8 0 -15 6 -15 13 0 7 -3 8 -8 2 -19 -26 -57
-34 -169 -35 -159 -2 -283 8 -372 31 -41 10 -83 19 -93 19 -11 0 -17 3 -15 8
3 4 -5 8 -16 9 -12 1 -33 4 -47 7 -14 2 -40 5 -57 5 -22 1 -33 6 -33 16 0 8
-7 15 -15 15 -8 0 -15 5 -15 10 0 6 -13 10 -28 10 -16 0 -32 3 -36 8 -4 4 -20
8 -34 8 -38 2 -39 3 -22 14 11 7 7 10 -17 10 -18 0 -33 5 -33 11 0 5 -15 16
-34 24 -46 19 -54 35 -19 36 l28 0 -25 10 c-19 8 -27 6 -36 -5 -12 -17 -29
-22 -19 -6 3 6 0 10 -7 11 -7 0 -4 4 7 9 19 8 19 9 0 9 -13 1 -16 4 -8 12 8 8
17 7 32 -2 18 -12 23 -11 41 9 11 12 16 22 11 22 -6 0 -8 7 -4 15 3 9 8 13 11
10 10 -9 10 -55 0 -49 -9 6 -11 -8 -2 -30 3 -9 10 -13 15 -10 5 3 9 0 9 -7 0
-7 11 -10 29 -7 17 2 28 1 25 -4 -3 -4 -1 -8 4 -8 5 0 12 -13 16 -30 6 -31 37
-42 52 -18 4 6 3 8 -3 5 -5 -3 -10 -1 -10 6 0 7 11 13 24 13 14 1 22 0 19 -3
-10 -10 19 -29 48 -31 17 -1 33 -8 38 -15 4 -6 8 -8 8 -4 0 5 5 5 11 1 8 -4 7
-9 -2 -16 -10 -7 -8 -8 8 -5 17 4 20 1 16 -12 -6 -14 -3 -13 14 2 12 10 24 30
27 43 6 22 8 23 21 10 8 -8 15 -20 15 -26 0 -6 16 -18 35 -26 20 -8 34 -18 31
-22 -3 -5 15 -9 40 -11 32 -1 44 2 42 11 -2 8 7 13 25 12 19 0 27 5 28 18 1
10 2 24 3 31 0 6 10 12 21 13 19 1 19 1 0 -3 -18 -5 -18 -6 5 -20 14 -8 18
-12 9 -9 -14 4 -39 -28 -39 -48 0 -2 26 -3 58 -2 48 1 57 4 54 19 -2 9 2 17 8
17 5 0 10 -5 10 -11 0 -5 5 -7 10 -4 6 4 9 1 8 -7 -2 -9 11 -14 40 -16 33 -2
42 0 36 9 -5 9 -2 10 12 4 10 -4 43 -10 72 -12 46 -3 56 0 72 19 20 24 28 94
10 83 -6 -4 -7 1 -3 11 4 10 2 15 -3 11 -6 -4 -9 6 -6 24 2 16 -2 37 -9 46
-13 15 -12 15 9 4 13 -7 26 -10 30 -7 3 3 -1 6 -8 6 -9 0 -7 5 6 16 18 14 18
15 -3 4 -17 -8 -29 -8 -43 0 -11 6 -20 7 -20 2 0 -5 -7 -9 -15 -9 -8 0 -15 7
-15 16 0 9 -3 12 -8 6 -9 -12 -35 -13 -43 -2 -3 5 -9 0 -11 -11 -4 -16 -2 -19
11 -15 12 3 11 1 -3 -7 -15 -10 -20 -9 -27 1 -5 8 -9 10 -9 6 0 -5 -5 -5 -12
-1 -8 5 -6 10 8 15 15 7 12 8 -11 6 -35 -2 -45 -13 -45 -49 0 -22 -4 -26 -17
-21 -22 7 -74 63 -68 73 2 3 -2 7 -10 7 -8 0 -13 -5 -12 -11 1 -6 -5 -11 -13
-11 -8 0 -14 6 -12 13 3 17 -15 15 -22 -3 -3 -8 -10 -15 -16 -15 -6 0 -9 4 -6
9 4 5 -3 7 -14 4 -11 -3 -20 -1 -20 5 0 6 -22 9 -52 7 -70 -4 -70 -4 -64 -13
3 -5 -1 -9 -10 -9 -9 0 -12 7 -8 19 8 26 -14 49 -45 48 -14 -1 -28 -1 -31 0
-3 1 -21 4 -40 6 -19 3 -40 12 -46 20 -6 8 -20 14 -32 14 -11 0 -22 6 -25 13
-3 8 -10 6 -21 -8 -17 -20 -17 -20 -11 3 7 23 -9 32 -18 10 -3 -8 -6 -5 -6 5
-1 10 -6 15 -11 12 -5 -3 -10 1 -10 9 0 21 -28 36 -65 36 -9 0 -15 9 -15 21 0
19 -1 19 -17 4 -16 -16 -17 -16 -25 4 -4 11 -15 21 -25 22 -10 0 -13 3 -6 5 8
4 1 16 -18 35 -17 16 -34 27 -40 24 -5 -4 -12 1 -15 9 -3 9 -10 13 -15 10 -5
-3 -6 2 -3 10 4 11 0 14 -15 11 -11 -2 -24 1 -27 7 -4 7 -2 8 4 4 15 -9 15 -1
2 25 -6 10 -16 19 -22 19 -6 0 -16 7 -23 17 -11 14 -13 13 -19 -11 -4 -17 -12
-26 -22 -24 -8 2 -15 8 -14 13 1 6 8 9 17 7 10 -2 14 2 10 11 -3 8 0 20 6 26
9 9 7 10 -8 5 -18 -7 -19 -6 -5 11 14 17 13 18 -4 12 -13 -5 -25 -1 -39 14
-13 14 -22 18 -25 11 -2 -7 -8 -10 -13 -6 -5 3 -9 0 -9 -5 0 -6 -3 -10 -7 -9
-5 2 -8 -1 -8 -7 0 -5 3 -9 8 -7 4 1 2 -6 -4 -16 -6 -10 -21 -18 -33 -18 -11
1 -21 -4 -21 -11 0 -6 -4 -15 -9 -20 -5 -5 -6 -3 -2 5 5 8 0 12 -16 11 -13 0
-18 -3 -11 -6 14 -5 -1 -39 -25 -58 -11 -9 -11 -13 2 -24 9 -8 16 -20 16 -28
0 -8 4 -11 10 -8 6 4 7 -1 4 -12 -5 -16 -4 -16 10 1 13 16 18 17 31 6 12 -10
15 -10 15 3 0 8 6 17 14 20 17 7 15 -18 -2 -35 -18 -18 -14 -36 8 -43 11 -3
20 -11 20 -17 0 -5 -7 -7 -16 -4 -8 3 -12 2 -9 -4 3 -6 17 -10 31 -10 14 0 23
4 19 9 -3 5 2 16 10 24 8 9 15 20 15 26 0 6 10 10 23 10 17 -1 18 -2 4 -6 -15
-4 -16 -11 -11 -41 4 -20 7 -42 7 -49 0 -6 6 -9 14 -6 9 4 11 0 6 -13 -5 -13
-3 -15 8 -9 12 8 12 6 0 -8 -7 -9 -10 -18 -5 -18 21 -3 31 -6 64 -21 19 -8 43
-18 53 -22 11 -3 21 -15 24 -26 3 -11 10 -20 15 -20 5 0 6 -4 3 -10 -3 -5 -22
-10 -41 -10 -19 0 -33 4 -30 9 6 10 -16 21 -41 21 -8 0 -22 8 -31 17 -16 16
-16 16 1 10 12 -5 17 -3 15 5 -2 6 -14 12 -26 13 -13 1 -28 8 -35 15 -10 10
-8 10 10 1 30 -15 42 -13 19 4 -11 8 -15 19 -11 27 6 10 5 11 -6 1 -20 -20
-53 -15 -76 10 -23 24 -47 66 -48 82 0 6 -11 9 -25 8 -14 -1 -19 0 -12 3 20 9
14 21 -11 20 -13 -1 -21 4 -19 12 1 6 -4 12 -11 12 -14 0 -47 35 -47 51 0 5
-6 7 -12 3 -8 -5 -7 0 2 11 9 11 10 16 2 11 -7 -4 -12 -2 -12 4 0 6 -5 8 -10
5 -6 -3 -10 0 -10 9 0 8 -12 24 -27 35 -27 20 -27 20 -4 16 13 -2 20 -1 17 3
-7 7 -11 8 -37 11 -6 0 -8 8 -5 17 3 8 2 12 -4 9 -6 -3 -10 -1 -10 4 0 6 12
11 28 11 21 0 24 2 12 10 -11 7 -12 10 -2 10 7 0 21 -8 30 -17 16 -16 17 -16
20 3 2 11 20 27 42 38 22 10 37 24 34 30 -3 6 2 2 10 -8 10 -12 16 -15 16 -7
0 7 6 11 13 8 6 -2 11 -10 9 -16 -1 -6 5 -11 13 -11 8 0 15 5 15 10 0 6 7 10
15 10 17 0 21 45 5 55 -5 3 -10 17 -10 31 0 16 -6 24 -17 25 -15 0 -15 2 2 9
18 8 17 9 -6 9 -15 1 -30 8 -33 17 -3 8 -11 12 -18 8 -8 -5 -9 0 -5 17 7 26
-11 109 -23 109 -5 0 -10 10 -12 22 -2 13 -13 27 -26 33 -21 9 -27 29 -24 92
1 13 -4 22 -11 20 -7 -1 -11 4 -9 11 1 6 -2 12 -6 12 -4 0 -8 15 -9 33 -1 69
-7 106 -13 102 -4 -3 -10 3 -13 14 -2 10 -14 20 -26 24 -11 3 -19 1 -16 -3 3
-5 1 -11 -4 -14 -5 -3 -11 0 -14 8 -5 13 18 31 35 28 3 -1 6 37 6 83 -1 47 -5
85 -10 85 -4 0 -8 7 -8 15 0 8 4 15 8 15 4 0 9 32 10 70 2 58 0 70 -13 70 -10
0 -13 5 -9 12 4 7 3 8 -5 4 -6 -4 -9 -12 -5 -17 7 -12 -28 -8 -37 5 -4 4 -16
3 -28 -3 -16 -9 -21 -9 -21 0 0 6 -9 9 -20 6 -11 -3 -20 -1 -20 4 0 14 -26 10
-40 -6 -13 -15 -35 -11 -25 6 4 5 1 9 -4 9 -14 0 -14 -17 -1 -25 6 -4 8 -11 5
-16 -3 -5 -2 -24 3 -42 7 -24 6 -38 -4 -52 -18 -25 -18 -39 1 -31 20 7 20 -26
0 -64 -13 -26 -13 -30 1 -44 8 -9 14 -24 12 -33 -2 -12 2 -17 12 -15 12 3 12
1 3 -9 -6 -6 -9 -19 -6 -28 4 -14 3 -14 -6 -1 -8 11 -11 12 -11 2 0 -7 -4 -11
-9 -8 -5 3 -11 -4 -14 -16 -4 -12 -2 -25 4 -29 6 -3 10 -9 10 -13 -1 -9 7 -8
27 4 16 10 16 10 -2 8 -11 -2 -20 4 -21 14 -3 16 -1 16 19 3 13 -8 26 -12 31
-8 4 5 -2 -6 -15 -24 -13 -18 -28 -29 -34 -26 -6 4 -3 -3 8 -15 10 -12 23 -19
29 -15 6 4 8 0 4 -10 -8 -21 -3 -21 18 -1 15 15 16 11 9 -60 -5 -55 -3 -80 6
-91 8 -10 9 -15 1 -15 -6 0 -11 -11 -11 -25 0 -14 5 -25 11 -25 5 0 8 -4 5 -8
-3 -5 1 -9 9 -9 8 0 12 4 10 7 -8 13 54 5 67 -8 11 -11 9 -12 -7 -6 -18 7 -19
6 -5 -11 14 -17 14 -18 -7 -7 -27 15 -36 15 -28 2 3 -6 -1 -13 -9 -16 -12 -5
-13 -10 -5 -25 5 -10 15 -19 21 -19 6 0 20 -7 30 -16 16 -16 18 -16 24 0 8 21
60 21 68 0 3 -8 2 -12 -4 -9 -6 3 -10 1 -10 -4 0 -6 -11 -11 -24 -11 -14 0
-27 -4 -31 -10 -3 -5 -13 -7 -23 -4 -11 4 -13 3 -6 -3 6 -4 14 -24 18 -43 4
-26 3 -30 -3 -15 -9 20 -10 19 -10 -1 -1 -12 6 -24 14 -28 8 -3 15 -2 15 3 0
11 49 11 56 0 3 -5 13 -9 22 -9 13 0 13 2 -4 15 -17 13 -18 14 -1 15 10 0 22
12 27 26 9 23 30 26 30 3 0 -6 -5 -7 -12 -3 -7 4 -8 3 -4 -5 4 -6 2 -20 -5
-29 -11 -13 -8 -12 9 2 12 11 22 28 22 39 0 11 3 17 7 14 3 -4 13 -1 22 6 12
9 11 7 -2 -13 -9 -13 -17 -32 -17 -42 0 -10 -5 -18 -11 -18 -5 0 -8 -4 -4 -9
3 -5 0 -13 -6 -17 -8 -4 -9 -3 -5 4 14 23 -16 12 -36 -13 -10 -13 -22 -24 -26
-22 -4 1 -7 -2 -7 -8 0 -5 4 -9 8 -7 5 1 6 -2 2 -8 -3 -5 0 -10 7 -10 11 0 11
-2 0 -9 -25 -15 -66 -7 -71 14 -2 11 -12 27 -23 36 -10 9 -20 30 -21 47 -1 17
-4 29 -7 27 -13 -8 -28 12 -33 42 -3 17 -9 39 -15 48 -5 10 -7 26 -5 36 3 11
0 19 -6 19 -6 0 -11 -6 -11 -12 0 -7 -5 -5 -11 5 -5 9 -8 21 -4 26 3 5 2 11
-2 13 -13 5 -43 68 -33 68 4 0 6 9 3 20 -3 11 -11 20 -18 20 -13 0 -27 60 -28
122 -1 20 -5 36 -11 35 -12 -3 -25 58 -29 136 -2 34 -8 71 -14 82 -13 24 -8
235 6 283 5 17 8 32 5 32 -3 0 0 10 7 21 9 17 8 20 -2 14 -9 -6 -10 -3 -5 11
4 10 9 30 11 44 8 62 45 209 64 250 11 24 17 48 15 52 -8 13 6 49 17 43 5 -4
10 0 11 7 7 68 32 123 49 112 5 -3 9 5 9 18 1 13 12 41 25 63 14 22 33 56 42
75 23 45 40 64 45 48 2 -6 4 6 5 26 1 46 4 49 47 50 19 1 32 4 29 9 -2 4 -9 5
-14 2 -5 -4 -9 -2 -9 4 0 5 6 14 13 18 6 4 12 13 12 20 0 17 84 103 101 103
10 0 12 5 8 13 -6 8 -3 8 9 -1 11 -9 21 -11 33 -4 16 9 15 10 -5 17 -18 5 -20
10 -10 21 6 7 15 12 19 9 4 -3 10 4 13 15 3 11 13 20 22 20 11 0 15 5 12 14
-4 10 -1 13 9 9 7 -3 14 -11 14 -19 0 -8 4 -14 8 -14 4 0 8 9 8 19 0 11 -4 17
-8 15 -4 -3 -8 0 -8 5 0 6 5 11 11 11 5 0 8 4 4 9 -7 12 25 30 41 24 6 -2 14
6 17 18 4 13 10 18 18 13 7 -4 10 -3 6 3 -8 13 23 42 50 46 12 1 28 9 37 16 8
7 21 9 28 5 10 -6 11 -5 1 7 -10 13 -10 16 2 16 8 0 15 -4 15 -9 0 -4 5 -8 11
-8 5 0 7 4 4 10 -3 5 3 20 14 32 12 12 21 18 21 12 0 -5 4 -3 9 4 4 7 24 15
43 16 46 4 62 14 48 31 -8 9 -5 14 10 18 13 3 18 1 14 -6 -5 -8 -2 -7 7 1 7 6
30 12 52 12 21 0 36 4 33 9 -9 15 22 34 61 37 21 1 43 10 49 19 9 12 13 13 17
3 5 -11 7 -11 15 0 8 12 52 22 114 26 14 0 24 4 22 8 -5 7 83 19 143 18 23 0
44 3 46 7 6 10 266 9 287 0z m-873 -163 c-3 -3 -12 -4 -19 -1 -8 3 -5 6 6 6
11 1 17 -2 13 -5z m-807 -1504 c8 -5 11 -10 5 -10 -5 0 -17 5 -25 10 -8 5 -10
10 -5 10 6 0 17 -5 25 -10z m46 -10 c0 -12 -4 -16 -9 -11 -5 5 -6 14 -3 20 10
15 12 14 12 -9z m-57 -13 c8 -10 7 -14 -2 -14 -8 0 -14 6 -14 14 0 7 1 13 2
13 2 0 8 -6 14 -13z m61 -78 c0 -10 -40 -3 -52 9 -5 5 5 7 22 4 16 -2 30 -8
30 -13z m-71 -92 c12 3 11 0 -4 -12 -12 -9 -21 -11 -23 -5 -2 5 -8 8 -13 5 -5
-4 -6 1 -3 10 5 11 10 13 17 6 5 -5 17 -7 26 -4z m91 9 c0 -2 -7 -7 -16 -10
-8 -3 -12 -2 -9 4 6 10 25 14 25 6z m28 -18 c-3 -7 -15 -14 -29 -16 -23 -2
-23 -2 -5 13 24 18 39 20 34 3z m-58 -93 c29 -17 28 -17 -27 -19 -48 -2 -51 1
-25 20 21 16 21 16 52 -1z m124 -87 c4 -17 2 -28 -4 -28 -5 0 -10 14 -10 32 0
36 4 35 14 -4z m-104 2 c12 -8 9 -10 -13 -10 -16 0 -26 4 -22 10 8 12 16 12
35 0z m64 -5 c5 -13 2 -14 -17 -4 -32 17 -33 19 -10 19 12 0 23 -7 27 -15z
m-122 -30 c-2 -14 -6 -25 -8 -25 -2 0 -4 11 -4 25 0 14 4 25 9 25 4 0 6 -11 3
-25z m126 -60 c-6 -13 -18 -26 -27 -28 -11 -3 -9 -5 6 -6 21 -1 40 -18 30 -27
-2 -3 -14 -6 -26 -9 -16 -3 -22 2 -27 21 l-6 24 -20 -22 -19 -23 5 30 c2 17 5
36 5 43 1 6 11 12 24 12 12 0 29 4 37 9 22 15 30 3 18 -24z m30 -28 c2 -12 -1
-15 -12 -11 -19 7 -22 38 -3 32 6 -3 13 -12 15 -21z m-128 -23 c0 -8 -19 -13
-24 -6 -3 5 1 9 9 9 8 0 15 -2 15 -3z m110 -29 c0 -2 -10 -10 -22 -16 -21 -11
-22 -11 -9 4 13 16 31 23 31 12z m60 -1 c0 -16 -16 -34 -30 -34 -30 0 -50 -11
-43 -24 3 -6 3 -8 -2 -4 -4 4 -14 3 -21 -3 -8 -7 -14 -6 -20 2 -4 8 -3 9 4 5
7 -4 12 -1 12 9 0 9 12 18 29 21 17 4 32 12 34 18 4 10 37 19 37 10z m49 -110
c-7 -8 -18 -13 -26 -10 -8 3 -16 -1 -19 -9 -8 -19 -20 -19 -28 1 -4 10 -2 13
6 8 6 -4 16 0 22 8 13 17 37 27 49 21 4 -3 3 -11 -4 -19z m9 -18 c-16 -8 -32
-18 -38 -21 -5 -3 -10 1 -10 9 0 9 6 13 14 10 8 -3 17 -1 21 5 3 6 14 11 23
11 11 0 7 -5 -10 -14z m19 -143 c-9 -2 -14 -9 -11 -15 4 -7 2 -8 -5 -4 -15 10
-4 26 17 25 15 -1 15 -2 -1 -6z m173 -245 c0 -18 -2 -20 -9 -8 -6 8 -7 18 -5
22 9 14 14 9 14 -14z m110 6 c0 -8 -19 -13 -24 -6 -3 5 1 9 9 9 8 0 15 -2 15
-3z m-143 -70 c-9 -9 -28 6 -21 18 4 6 10 6 17 -1 6 -6 8 -13 4 -17z m173 2
c0 -3 -4 -8 -10 -11 -5 -3 -10 -1 -10 4 0 6 5 11 10 11 6 0 10 -2 10 -4z m18
-50 c-10 -7 -18 -21 -18 -31 0 -15 2 -14 18 5 l17 21 16 -35 c11 -24 13 -38 6
-43 -5 -3 -7 -1 -4 4 4 6 0 16 -7 22 -11 9 -16 9 -22 -1 -15 -24 -13 -40 4
-33 12 4 11 0 -4 -14 -12 -11 -24 -25 -26 -32 -2 -7 -10 -9 -16 -5 -11 7 -8
63 3 75 3 2 -1 11 -7 19 -10 12 -7 19 15 38 16 13 31 24 35 24 4 0 -1 -7 -10
-14z m-111 -32 c-3 -3 -12 -4 -19 -1 -8 3 -5 6 6 6 11 1 17 -2 13 -5z m233
-74 c0 -5 -2 -10 -4 -10 -3 0 -8 5 -11 10 -3 6 -1 10 4 10 6 0 11 -4 11 -10z
m80 -41 c0 -10 -6 -19 -14 -19 -15 0 -29 27 -21 40 9 15 35 -1 35 -21z m-120
-29 c0 -5 -6 -10 -14 -10 -8 0 -18 5 -21 10 -3 6 3 10 14 10 12 0 21 -4 21
-10z m200 -10 c0 -5 -4 -10 -10 -10 -5 0 -10 5 -10 10 0 6 5 10 10 10 6 0 10
-4 10 -10z m100 -71 c0 -10 -4 -21 -10 -24 -5 -3 -10 -12 -10 -18 1 -18 30 24
30 43 0 9 7 17 15 17 10 0 14 -6 10 -15 -5 -13 -3 -13 11 -1 16 13 16 12 5 -9
-7 -12 -16 -20 -21 -17 -5 3 -15 -3 -22 -12 -7 -10 -22 -23 -33 -30 -11 -6
-19 -17 -17 -25 1 -8 -3 -6 -11 4 -23 29 -8 108 19 108 10 0 12 5 8 13 -5 8
-2 8 9 -2 9 -7 17 -22 17 -32z m-115 21 c3 -5 1 -10 -5 -10 -7 0 -9 -8 -4 -22
6 -19 5 -20 -8 -7 -8 8 -15 22 -15 32 0 18 22 23 32 7z m359 -42 c-6 -9 -3 -9
9 0 14 12 16 11 12 -7 -2 -12 -1 -21 3 -21 4 0 7 -10 7 -22 1 -13 4 -40 9 -62
6 -32 5 -38 -7 -33 -8 3 -20 0 -26 -6 -9 -9 -11 -8 -6 6 4 9 12 17 18 17 6 0
7 3 4 6 -4 4 -13 1 -22 -6 -10 -8 -15 -9 -15 -1 0 6 -7 11 -14 11 -11 0 -15
11 -13 40 1 39 5 43 37 41 10 0 11 1 3 5 -16 7 -17 44 -2 44 5 0 7 -6 3 -12z
m-384 -24 c0 -8 -4 -12 -10 -9 -5 3 -10 13 -10 21 0 8 5 12 10 9 6 -3 10 -13
10 -21z m266 1 c-8 -8 -18 -15 -22 -15 -3 0 -1 7 6 15 7 8 17 15 22 15 5 0 3
-7 -6 -15z m467 -64 c9 -11 9 -13 0 -8 -8 5 -10 -1 -7 -20 5 -26 4 -26 -14
-10 -10 9 -22 14 -25 10 -4 -3 -7 12 -7 35 0 31 4 41 18 44 11 2 18 -4 20 -17
2 -11 9 -26 15 -34z m-499 43 c19 -7 22 -40 4 -42 -7 0 -23 -3 -36 -6 -13 -3
-20 -1 -17 5 4 5 11 6 17 3 8 -5 9 -1 5 10 -4 10 -5 22 -1 27 6 11 8 11 28 3z
m276 -10 c0 -8 -4 -12 -10 -9 -5 3 -10 10 -10 16 0 5 5 9 10 9 6 0 10 -7 10
-16z m310 7 c0 -5 -7 -12 -16 -15 -14 -5 -15 -4 -4 9 14 17 20 19 20 6z m-295
-41 c-3 -5 -10 -10 -16 -10 -5 0 -9 5 -9 10 0 6 7 10 16 10 8 0 12 -4 9 -10z
m-741 -12 c-3 -4 -9 -8 -15 -8 -5 0 -9 4 -9 8 0 5 7 9 15 9 8 0 12 -4 9 -9z
m966 -18 c0 -5 -2 -10 -4 -10 -3 0 -8 5 -11 10 -3 6 -1 10 4 10 6 0 11 -4 11
-10z m45 -18 c-3 -3 -11 0 -18 7 -9 10 -8 11 6 5 10 -3 15 -9 12 -12z m-221
-7 c3 -8 1 -15 -4 -15 -6 0 -10 7 -10 15 0 8 2 15 4 15 2 0 6 -7 10 -15z m129
-17 c-8 -14 -19 -8 -20 12 -1 16 1 17 12 7 7 -6 11 -15 8 -19z m127 -2 c0 -2
-7 -7 -16 -10 -8 -3 -12 -2 -9 4 6 10 25 14 25 6z"/>
<path d="M1550 3450 c-13 -8 -13 -10 2 -10 9 0 20 5 23 10 8 13 -5 13 -25 0z"/>
<path d="M1593 3394 c14 -14 -25 -34 -66 -34 -59 0 -108 -10 -101 -21 3 -5 0
-9 -5 -9 -6 0 -11 4 -11 9 0 12 -52 5 -60 -9 -5 -8 -12 -7 -23 4 -18 18 -37
21 -37 6 0 -5 5 -10 10 -10 6 0 10 -5 10 -11 0 -6 -6 -9 -12 -7 -7 3 -19 -1
-26 -8 -10 -10 -18 -11 -38 -2 -21 10 -27 9 -40 -10 -11 -16 -26 -22 -50 -22
-19 0 -33 -4 -30 -9 3 -5 -5 -12 -19 -15 -14 -4 -25 -12 -25 -19 0 -8 -4 -7
-10 3 -8 13 -10 12 -10 -4 0 -11 -3 -16 -7 -13 -3 4 -11 0 -17 -9 -7 -10 -29
-16 -56 -17 -37 -2 -44 -6 -42 -20 2 -10 -3 -17 -13 -17 -8 0 -15 -4 -15 -10
0 -5 -12 -10 -26 -10 -18 0 -24 -4 -21 -13 3 -8 8 -44 12 -81 4 -38 11 -63 15
-56 5 8 9 4 13 -11 4 -13 4 -25 2 -28 -3 -2 -5 0 -5 6 0 6 -11 8 -24 6 -17 -4
-27 1 -35 16 -7 12 -9 21 -6 21 3 0 1 9 -5 20 -14 25 -64 27 -80 3 -11 -17
-11 -17 -6 0 3 10 0 17 -9 17 -18 0 -28 -17 -15 -25 12 -8 -38 -85 -56 -85 -7
0 -20 -8 -30 -17 -10 -10 -22 -18 -28 -18 -6 0 -11 -4 -12 -10 -3 -33 -52 -95
-75 -95 -5 0 -9 -9 -9 -20 0 -12 -5 -17 -14 -14 -15 6 -31 -40 -20 -57 3 -6
-3 -13 -14 -16 -25 -6 -36 -31 -21 -49 14 -17 3 -34 -21 -34 -13 0 -22 -10
-28 -32 -4 -18 -15 -33 -23 -33 -9 0 -14 -11 -15 -30 0 -17 -8 -42 -18 -58
-10 -15 -19 -41 -21 -57 -1 -17 -9 -38 -18 -48 -23 -26 -4 -52 38 -52 19 0 37
-4 40 -10 3 -5 11 -10 16 -10 6 0 8 3 6 8 -3 4 8 7 23 8 46 2 59 11 65 48 4
21 14 36 25 39 22 6 33 54 14 61 -8 3 -14 15 -14 26 0 15 7 20 26 20 27 0 29
12 13 70 -3 11 5 14 34 13 31 -1 37 2 33 15 -4 11 9 33 33 59 22 23 42 51 46
63 3 11 10 20 15 20 5 0 12 9 15 20 4 11 11 18 16 15 5 -4 9 0 9 8 0 14 39 37
86 51 19 6 40 53 35 79 0 4 6 7 14 7 9 0 20 11 25 25 5 14 15 25 22 25 7 0 26
7 41 15 15 8 35 12 45 9 9 -3 6 2 -8 11 l-25 16 25 -6 c24 -6 25 -6 5 10 -19
15 -19 17 -2 26 9 6 15 14 12 20 -4 5 5 5 20 -1 39 -15 105 -13 105 3 0 8 9
22 20 32 21 19 27 45 9 45 -5 0 -7 5 -4 11 5 7 15 4 29 -9 39 -35 55 -35 73 3
16 33 18 34 38 21 30 -20 115 -1 115 26 0 15 9 18 61 18 37 0 58 4 54 10 -3 6
1 10 10 10 9 0 13 -4 10 -10 -3 -5 3 -10 14 -10 12 0 21 6 21 13 0 8 3 9 8 1
9 -13 127 -19 118 -6 -3 5 1 16 10 23 10 8 13 21 9 37 -4 17 -2 22 6 16 9 -5
10 0 6 17 -4 13 -7 38 -7 56 0 29 -4 33 -42 43 -29 8 -48 9 -65 1 -14 -7 -23
-7 -23 -1 0 6 -5 10 -12 10 -6 0 -9 -3 -5 -6z m-323 -195 c0 -5 -4 -9 -8 -9
-5 0 -9 7 -9 15 0 8 4 12 9 9 4 -3 8 -9 8 -15z m-101 -32 c0 -21 -1 -21 -9 -2
-12 28 -12 37 0 30 6 -3 10 -16 9 -28z"/>
<path d="M1850 3393 c-30 -12 -61 -53 -51 -70 5 -9 7 -44 5 -77 -2 -40 -1 -52
4 -36 8 25 8 25 20 4 11 -21 62 -31 62 -12 0 5 5 6 11 2 28 -17 90 -16 111 2
19 17 21 17 15 2 -3 -10 -3 -17 1 -17 4 1 21 -2 39 -6 23 -5 30 -11 26 -23 -5
-12 -1 -14 21 -8 14 3 36 1 47 -5 12 -6 37 -11 55 -11 22 0 34 -5 34 -14 0 -8
6 -11 15 -8 22 9 65 -23 65 -47 0 -11 4 -17 10 -14 5 3 19 1 31 -6 16 -8 20
-8 14 1 -6 9 -3 9 13 1 11 -6 29 -8 39 -5 15 5 15 4 3 -5 -12 -9 -11 -11 9
-11 13 0 21 -3 18 -7 -4 -3 11 -14 34 -24 40 -18 41 -18 70 3 16 12 29 30 29
40 0 10 6 18 13 18 8 0 7 4 -3 10 -10 6 -11 10 -2 10 6 0 12 12 12 28 0 15 -6
34 -12 41 -10 11 -10 14 0 18 21 8 13 24 -10 22 -59 -5 -88 1 -88 19 0 13 -8
18 -27 17 -21 0 -28 5 -27 18 1 9 -1 17 -5 18 -3 0 -24 2 -46 4 -22 2 -57 11
-77 20 -29 12 -38 12 -38 3 0 -7 -6 -4 -12 7 -14 24 -38 49 -38 39 0 -3 -7 -1
-15 6 -9 7 -19 10 -22 6 -4 -4 -1 -11 7 -17 13 -8 13 -10 0 -19 -11 -7 -18 -3
-29 14 -11 19 -23 23 -72 24 -35 1 -59 -3 -59 -9 0 -6 -7 -3 -16 5 -8 9 -27
19 -42 22 -15 3 -46 12 -70 20 -46 15 -49 15 -72 7z"/>
<path d="M998 3273 c7 -3 16 -2 19 1 4 3 -2 6 -13 5 -11 0 -14 -3 -6 -6z"/>
<path d="M1613 3058 c-29 -5 -53 -13 -53 -18 0 -5 -8 -9 -17 -9 -10 0 -34 -1
-53 -1 -19 -1 -50 -10 -70 -21 -19 -12 -26 -14 -16 -5 25 20 18 20 -30 -1 -22
-9 -50 -18 -64 -20 -14 -3 -27 -8 -28 -14 -2 -5 -8 -7 -13 -3 -5 3 -9 1 -9 -4
0 -6 -11 -13 -25 -16 -15 -4 -23 -11 -19 -17 4 -7 -1 -7 -15 0 -17 10 -22 9
-27 -3 -3 -8 -12 -12 -19 -10 -7 3 -16 0 -21 -7 -5 -8 -3 -10 6 -4 9 5 11 4 6
-4 -4 -6 -12 -9 -17 -6 -5 4 -14 3 -20 -1 -8 -4 -7 -9 2 -15 10 -6 5 -9 -14
-9 -18 0 -26 -4 -21 -11 4 -8 1 -8 -12 -1 -25 12 -44 5 -44 -18 0 -17 -47 -57
-63 -52 -4 1 -12 -9 -17 -24 -6 -14 -14 -22 -20 -19 -9 6 -14 -8 -11 -27 1 -7
-22 -12 -41 -9 -5 0 -8 -7 -8 -18 0 -10 -9 -21 -20 -24 -11 -3 -20 -12 -20
-21 0 -9 -4 -16 -9 -16 -6 0 -20 -18 -32 -40 -13 -22 -28 -40 -35 -40 -7 0
-15 -6 -17 -12 -4 -9 -6 -8 -7 2 -1 8 -8 -5 -14 -30 -7 -25 -18 -44 -23 -43
-6 1 -9 -7 -6 -20 4 -19 3 -20 -7 -4 -6 9 -16 17 -23 17 -8 0 -8 -3 2 -9 10
-7 11 -13 2 -29 -6 -12 -11 -25 -10 -29 3 -20 -2 -34 -11 -28 -5 3 -10 -1 -10
-10 0 -9 5 -13 11 -9 6 3 3 -5 -6 -20 -9 -14 -21 -24 -25 -21 -5 3 -6 -5 -2
-17 4 -17 2 -20 -11 -15 -10 4 -17 2 -17 -2 0 -5 5 -11 12 -13 7 -3 3 -11 -10
-24 -16 -15 -23 -37 -28 -89 -4 -39 -13 -77 -21 -87 -9 -10 -11 -18 -4 -22 6
-4 8 -13 5 -21 -4 -8 -10 -12 -15 -9 -6 3 -8 -6 -5 -20 3 -14 1 -28 -4 -31
-11 -7 -9 -385 2 -385 4 0 8 -9 8 -19 0 -11 7 -26 15 -35 8 -8 15 -30 15 -50
0 -19 4 -37 9 -41 14 -8 11 -66 -3 -58 -6 4 -2 -3 8 -15 11 -12 15 -22 11 -22
-5 0 0 -6 11 -14 10 -8 16 -18 11 -22 -4 -4 2 -17 13 -29 12 -13 22 -38 23
-60 2 -20 10 -42 18 -49 9 -6 14 -16 12 -23 -2 -6 1 -15 8 -19 8 -5 9 -3 4 5
-5 9 -1 9 14 -1 12 -7 21 -17 21 -22 0 -5 11 -24 25 -42 14 -18 25 -40 25 -49
0 -9 4 -14 9 -10 5 3 12 1 16 -5 3 -5 -3 -10 -14 -10 -12 0 -21 -4 -21 -10 0
-5 6 -10 14 -10 8 0 22 -3 32 -7 13 -5 15 -3 9 8 -6 10 -5 11 3 4 6 -6 12 -25
14 -42 2 -26 5 -30 19 -23 19 11 29 4 29 -19 0 -9 9 -22 20 -29 23 -14 16 -46
-9 -37 -12 5 -13 3 -5 -5 9 -9 17 -9 32 -1 15 8 23 8 28 0 3 -6 20 -17 38 -25
17 -7 25 -13 19 -14 -7 0 -13 -4 -13 -10 0 -5 6 -7 13 -4 8 3 20 -2 27 -10 7
-9 16 -13 21 -10 5 3 6 -1 4 -8 -4 -10 4 -14 26 -16 18 -1 40 -12 51 -24 22
-26 23 -32 2 -24 -10 4 -14 1 -12 -6 6 -16 38 -17 57 -3 12 8 13 6 8 -7 -7
-20 8 -25 16 -5 4 8 8 9 14 1 4 -6 16 -13 25 -17 12 -4 16 -13 12 -24 -4 -14
-4 -15 4 -4 8 11 14 10 36 -4 14 -10 26 -13 26 -9 0 5 9 -2 20 -16 16 -20 22
-22 29 -11 5 8 11 9 15 3 4 -6 15 -9 26 -7 11 2 23 -2 27 -10 5 -8 33 -15 69
-18 34 -3 71 -10 82 -16 14 -8 23 -8 27 -1 5 8 12 7 23 -2 13 -11 14 -11 8 0
-7 11 -4 12 10 4 11 -6 89 -8 189 -6 94 2 183 4 199 4 15 0 35 8 43 16 9 8 22
13 31 9 8 -3 24 0 36 7 12 7 32 13 46 13 14 0 28 5 32 10 5 6 8 5 8 -2 0 -7 9
-13 20 -13 11 0 20 5 20 11 0 5 -4 8 -9 4 -5 -3 -13 0 -17 7 -4 7 -4 10 1 6
11 -11 47 11 39 24 -4 7 -2 8 5 4 6 -4 23 -1 36 8 13 9 36 16 50 16 15 0 24 4
20 10 -3 6 1 10 10 10 22 0 65 30 65 45 0 8 19 16 49 20 28 4 56 14 63 23 11
15 11 15 -2 6 -17 -13 -52 -15 -44 -2 3 5 9 6 13 4 4 -3 17 2 27 12 28 24 61
42 78 42 8 0 18 4 21 10 3 6 -1 7 -9 4 -9 -3 -16 -1 -16 5 0 6 7 11 16 11 10
0 14 5 10 15 -9 23 21 30 49 11 21 -14 24 -22 20 -49 -7 -40 -29 -65 -40 -46
-6 8 -4 10 4 4 9 -5 12 0 9 16 -2 14 2 23 9 22 6 -1 10 5 9 15 -2 9 -12 17
-24 18 -19 1 -20 -1 -10 -20 14 -25 15 -20 -16 -57 -15 -17 -26 -37 -26 -44 0
-9 -8 -11 -22 -7 -20 5 -21 3 -11 -10 10 -12 10 -15 -5 -15 -9 0 -20 5 -24 11
-5 7 -8 5 -8 -5 0 -9 -7 -30 -16 -48 -13 -26 -19 -30 -30 -20 -8 6 -14 7 -14
2 0 -6 -11 -9 -24 -8 -23 3 -24 1 -15 -22 8 -20 7 -24 -5 -20 -17 7 -39 -16
-28 -28 4 -5 1 -4 -7 0 -11 6 -13 4 -8 -11 7 -18 7 -18 -8 0 -14 19 -15 19
-15 1 0 -18 -1 -18 -15 1 -13 18 -14 18 -9 -6 2 -14 2 -19 -2 -12 -8 18 -38
15 -65 -7 -20 -16 -21 -21 -10 -35 12 -14 12 -16 -3 -10 -22 9 -93 -5 -77 -15
7 -5 14 -17 15 -27 2 -10 10 -17 17 -16 8 2 10 0 6 -4 -12 -12 -57 -13 -50 -1
4 6 -3 8 -16 4 -17 -4 -21 -2 -17 9 7 17 -5 18 -23 2 -11 -11 -12 -10 -5 2 6
11 1 11 -20 -3 -15 -10 -30 -16 -33 -14 -2 3 -19 -1 -38 -8 -18 -8 -35 -11
-39 -8 -3 4 -6 -4 -6 -16 0 -15 4 -20 13 -15 9 5 9 4 -1 -7 -10 -11 -9 -16 9
-30 13 -10 21 -27 21 -45 0 -16 5 -34 10 -41 5 -7 7 -17 3 -23 -4 -6 -1 -17 5
-25 6 -8 9 -19 5 -25 -3 -6 3 -10 14 -10 15 0 19 5 14 18 -3 9 -2 14 2 9 5 -4
17 0 27 10 16 14 16 19 5 37 -17 26 -27 85 -15 92 4 3 3 14 -3 25 -16 30 -2
36 24 10 14 -14 16 -20 6 -16 -10 4 -16 0 -16 -9 0 -8 5 -14 10 -13 12 3 28
-53 19 -67 -13 -22 -10 -34 11 -40 12 -3 25 0 29 7 4 7 8 8 8 4 0 -12 30 20
30 32 0 6 -4 11 -8 11 -11 0 -35 51 -28 58 10 9 57 -29 50 -40 -4 -7 -3 -8 4
-4 6 4 18 -5 27 -21 9 -15 14 -20 11 -10 -3 9 -1 17 4 17 6 0 10 -4 10 -9 0
-5 6 -11 13 -14 8 -3 14 1 14 9 0 7 -5 10 -10 7 -6 -3 -7 -1 -3 5 5 9 13 9 27
1 19 -10 20 -9 9 10 -9 17 -8 22 5 27 8 3 12 11 8 18 -3 6 3 3 15 -8 20 -18
22 -18 49 2 15 10 34 17 41 15 6 -3 12 2 12 11 0 10 6 13 17 9 10 -4 14 -2 9
5 -3 6 -2 13 4 17 6 4 8 11 4 16 -3 5 -9 7 -13 5 -3 -3 -7 4 -7 14 0 10 6 16
13 13 7 -3 10 -10 6 -17 -3 -6 -2 -7 2 -3 18 16 12 33 -12 35 -14 1 -32 7 -41
13 -15 9 -15 10 1 5 12 -4 16 -2 11 5 -4 7 -25 9 -57 6 -44 -6 -48 -5 -31 7
10 8 26 12 36 11 10 -2 18 0 18 6 0 5 5 8 12 7 6 -2 14 6 16 17 5 28 22 44 22
21 0 -9 5 -14 10 -11 6 4 10 3 9 -2 -3 -11 23 -63 31 -63 4 0 6 -11 5 -24 -3
-24 26 -48 33 -28 2 6 12 7 24 4 14 -3 19 -1 14 6 -4 7 -1 12 7 12 8 0 18 7
21 16 3 9 11 12 18 8 9 -5 9 -3 -1 9 -7 9 -24 17 -37 17 -15 0 -24 6 -24 15 0
8 -5 15 -10 15 -6 0 -9 3 -8 8 4 15 -14 52 -23 47 -5 -3 -6 0 -3 8 2 7 11 14
19 14 8 0 12 -4 10 -8 -3 -3 4 -9 16 -12 16 -4 18 -3 9 7 -8 10 -5 13 14 11
34 -4 42 -11 60 -45 8 -17 10 -28 5 -25 -5 4 -9 -1 -9 -11 0 -15 2 -15 26 1
15 9 23 12 20 6 -7 -10 4 -15 21 -8 13 4 13 57 0 57 -8 0 -7 3 2 9 12 8 9 11
-13 17 l-29 7 23 12 c20 11 21 13 4 19 -10 4 -21 1 -26 -6 -5 -9 -8 -7 -9 7 0
11 -3 31 -5 44 -2 14 -1 22 2 18 4 -4 13 -2 20 3 9 8 12 6 10 -6 0 -9 5 -19
13 -22 10 -3 12 0 8 12 -4 10 -3 15 3 11 6 -3 10 -13 10 -20 0 -17 34 -38 44
-27 4 3 4 -1 1 -9 -8 -20 28 -32 45 -15 9 8 14 8 17 -1 3 -7 9 -13 15 -13 11
0 8 50 -5 68 -15 19 0 14 21 -8 14 -15 19 -16 19 -6 0 9 -7 18 -15 21 -12 4
-12 8 -1 22 15 18 16 18 -38 -4 -13 -5 -15 -3 -10 12 6 14 5 16 -6 6 -11 -8
-19 -7 -35 8 -12 10 -18 22 -14 26 4 5 -2 5 -13 1 -11 -4 -16 -4 -12 0 4 4 2
12 -3 19 -7 8 -5 12 5 12 8 0 12 -4 9 -9 -3 -4 -3 -8 0 -8 7 0 45 37 43 42 -1
2 3 -2 9 -9 6 -7 15 -9 19 -5 5 4 5 1 1 -6 -4 -7 -17 -10 -29 -7 -20 5 -20 4
-2 -4 35 -15 105 -29 105 -20 0 5 7 6 16 2 8 -3 23 3 33 14 20 21 44 113 30
113 -5 0 -9 7 -9 16 0 8 -4 13 -9 9 -5 -3 -12 -1 -16 5 -4 6 -10 8 -15 5 -4
-3 -13 2 -20 10 -11 13 -10 14 5 9 13 -5 16 -4 11 5 -5 7 -16 11 -25 8 -10 -2
-18 1 -18 9 0 7 4 11 9 8 4 -3 14 -2 21 3 20 13 41 13 50 0 6 -8 7 -6 4 5 -3
9 1 19 9 22 9 4 14 0 12 -9 -2 -7 2 -13 7 -12 6 1 9 7 7 12 -1 6 8 -3 22 -18
20 -25 26 -27 43 -17 13 8 20 25 21 45 1 35 -13 47 -48 40 -25 -5 -41 23 -33
55 5 19 3 22 -10 17 -11 -4 -14 -2 -11 8 3 8 13 11 21 8 12 -5 14 -3 8 6 -6
10 -2 10 16 0 13 -7 30 -12 37 -11 6 2 12 -4 12 -13 0 -9 5 -13 11 -9 6 3 15
1 19 -7 12 -18 52 29 46 54 -2 9 -1 15 4 12 4 -3 11 7 14 21 5 17 12 24 21 20
20 -7 20 27 1 43 -11 9 -15 9 -19 -1 -4 -11 -6 -10 -6 0 -1 7 -5 10 -11 7 -6
-3 -10 1 -10 10 0 27 -29 29 -51 4 -14 -17 -19 -19 -15 -7 3 12 1 15 -9 11 -8
-3 -18 2 -21 11 -3 9 -15 16 -26 16 -11 0 -28 5 -39 10 -17 10 -19 7 -19 -23
0 -21 -8 -41 -20 -52 -11 -10 -20 -24 -20 -31 0 -7 -6 -11 -14 -8 -8 3 -17 1
-21 -5 -3 -6 0 -9 8 -5 8 3 18 1 21 -5 4 -5 -3 -12 -14 -16 -21 -7 -27 -30
-11 -40 11 -6 -26 -75 -40 -75 -5 0 -9 12 -9 27 0 14 -3 23 -7 19 -4 -3 -6
-24 -5 -45 2 -27 -2 -40 -13 -44 -9 -4 -15 -19 -15 -41 0 -33 1 -35 24 -26 19
7 26 5 30 -6 3 -8 10 -12 16 -9 14 8 13 -8 -1 -22 -6 -6 -8 -16 -4 -23 5 -8
13 -6 28 7 18 15 20 15 8 1 -7 -9 -9 -23 -5 -29 4 -8 3 -9 -4 -5 -7 4 -12 1
-12 -8 0 -12 -5 -10 -23 7 -21 20 -22 24 -9 40 9 9 12 20 9 23 -4 4 -9 -1 -13
-10 -7 -18 -39 -22 -49 -6 -3 6 1 7 12 4 10 -3 5 2 -11 11 -28 16 -29 16 -51
-7 -12 -13 -25 -30 -28 -38 -4 -11 -6 -9 -7 5 -1 11 -2 24 -1 28 1 5 -3 6 -9
2 -6 -3 -8 -11 -5 -16 4 -5 -3 -9 -13 -9 -22 0 -34 30 -21 51 7 12 9 12 9 0 0
-11 3 -11 15 -1 8 6 13 16 12 20 -1 5 6 15 16 22 10 7 19 23 20 35 0 12 4 20
7 18 11 -6 51 15 45 25 -3 5 -1 10 6 10 6 0 9 8 6 20 -3 14 3 30 19 47 13 14
24 30 24 35 0 5 5 6 10 3 9 -6 14 8 11 28 0 4 4 7 10 7 6 0 9 7 5 15 -8 21 13
75 30 75 8 0 14 6 14 13 0 8 4 7 11 -3 8 -12 9 -10 4 8 -4 13 -1 29 5 37 7 8
10 21 7 30 -4 8 1 18 10 23 14 8 14 10 -1 15 -9 4 -16 11 -16 17 0 6 6 8 13 4
7 -5 6 0 -3 11 -8 10 -10 16 -4 12 7 -4 15 1 18 10 4 9 1 20 -6 24 -10 6 -9 9
2 13 13 5 70 4 70 -1 0 -16 -22 -53 -29 -48 -12 6 -33 -29 -24 -39 11 -11 21
-6 27 12 2 9 2 0 -1 -20 -6 -43 8 -54 48 -40 15 5 41 4 69 -3 39 -10 42 -13
20 -17 -18 -4 -13 -6 17 -7 45 -1 55 7 60 51 3 27 1 28 -41 28 -25 0 -48 5
-51 10 -3 6 -17 10 -31 10 -13 0 -24 5 -24 10 0 6 -5 10 -11 10 -5 0 -7 -4 -4
-10 3 -5 1 -10 -4 -10 -14 0 -14 17 -1 25 6 4 18 1 27 -7 14 -11 15 -10 10 12
-4 14 -4 20 -1 13 3 -7 20 -10 42 -7 29 3 33 2 17 -6 -15 -7 -11 -8 18 -4 24
4 37 2 37 -5 0 -20 36 -11 59 14 32 38 18 48 -53 42 -59 -6 -60 -6 -26 7 23 9
34 19 32 30 -3 14 9 21 31 17 4 0 7 3 7 9 0 5 6 7 14 4 11 -4 13 0 9 15 -7 27
-29 45 -48 37 -8 -3 -15 -1 -15 5 0 6 -5 7 -12 3 -7 -4 -8 -3 -4 5 4 6 12 9
17 6 5 -4 9 1 9 9 0 9 8 16 19 16 22 0 26 4 35 43 4 18 3 26 -3 23 -6 -4 -6 5
0 26 11 40 11 41 0 33 -22 -13 -45 69 -25 89 15 16 5 28 -28 33 -12 2 -17 -8
-20 -45 -2 -26 -1 -63 3 -82 11 -47 -4 -61 -57 -58 -23 2 -40 6 -37 11 2 4 -1
8 -6 8 -6 1 -15 2 -20 3 -5 0 -13 5 -18 10 -5 5 -2 6 6 1 10 -6 12 -3 7 12 -4
13 0 25 11 34 10 7 15 9 11 5 -4 -5 -3 -15 3 -23 9 -9 8 -13 0 -13 -6 0 -11 5
-11 12 0 6 -3 8 -6 5 -4 -4 -1 -14 6 -22 10 -12 15 -13 21 -3 4 7 4 17 0 23
-5 5 -7 18 -6 28 3 14 -3 17 -29 15 -30 -2 -32 -4 -34 -47 -3 -62 6 -111 21
-108 7 1 11 -4 9 -12 -2 -9 3 -11 13 -7 9 3 13 2 10 -4 -10 -16 -38 -12 -32 4
4 10 1 13 -7 10 -19 -7 -16 -89 4 -89 23 -1 40 -14 40 -33 0 -14 -1 -14 -12 0
-20 23 -48 30 -48 12 0 -11 5 -14 18 -9 13 5 12 2 -4 -14 -38 -35 -74 -32 -69
7 2 15 4 34 5 42 1 10 4 9 10 -5 7 -16 9 -17 9 -3 1 9 -3 20 -9 23 -5 3 -6 23
-2 48 15 87 0 386 -20 398 -11 7 -10 11 2 19 13 8 13 10 -1 10 -17 0 -22 17
-37 132 -5 35 -16 66 -28 80 -12 13 -27 38 -34 56 -7 18 -20 37 -29 43 -15 10
-15 10 0 6 11 -4 16 0 15 11 -1 21 -27 52 -38 46 -4 -3 -8 2 -8 11 0 9 -4 13
-10 10 -6 -4 -10 5 -10 21 0 17 -12 38 -34 58 -35 34 -62 75 -58 90 2 5 -4 3
-13 -4 -13 -11 -14 -10 -9 5 5 11 4 16 -3 12 -5 -4 -19 0 -29 8 -18 13 -18 14
4 8 12 -3 22 -1 22 5 0 14 -25 33 -33 25 -4 -3 -7 -1 -7 4 0 6 -11 10 -25 9
-13 -2 -22 1 -19 5 3 5 0 9 -5 9 -6 0 -11 7 -11 15 0 8 -4 15 -9 15 -5 0 -16
6 -23 13 -7 7 -28 23 -46 36 -18 13 -31 25 -28 28 2 3 -5 14 -17 26 -13 13
-22 17 -25 9 -3 -9 -9 -9 -25 -1 -41 23 -46 32 -29 54 15 18 15 18 1 7 -13
-10 -22 -10 -43 -1 -14 7 -22 17 -19 23 4 6 0 5 -9 -2 -10 -8 -19 -9 -22 -3
-4 5 -15 8 -26 6 -18 -3 -25 6 -21 28 1 4 -7 3 -18 -3 -20 -10 -51 -4 -51 10
0 5 8 11 18 13 12 3 11 5 -6 6 -13 0 -20 6 -17 11 3 6 1 10 -4 10 -6 0 -11 -7
-11 -16 0 -14 -2 -15 -17 -3 -10 9 -14 9 -10 2 5 -8 -1 -7 -20 2 -15 8 -36 12
-45 9 -10 -3 -18 -1 -18 4 0 5 -6 9 -12 10 -35 3 -114 27 -120 36 -5 7 -8 5
-8 -4 0 -9 -3 -11 -8 -4 -9 13 -220 16 -244 3 -10 -6 -19 -5 -23 1 -3 5 -9 9
-13 9 -4 -1 -31 -6 -59 -11z m42 -61 c76 13 385 0 395 -17 5 -8 62 -24 120
-34 25 -4 41 -17 34 -28 -5 -7 0 -9 14 -6 22 6 95 -24 87 -36 -3 -3 1 -2 7 4
15 13 31 13 23 0 -3 -6 4 -10 17 -10 17 0 28 -11 41 -40 16 -34 21 -38 36 -28
15 9 22 7 40 -11 11 -11 26 -21 32 -21 5 0 7 -4 4 -10 -6 -9 8 -14 28 -11 5 1
5 -3 2 -9 -4 -6 -14 -9 -22 -6 -8 3 -11 1 -8 -5 4 -5 16 -7 27 -3 14 4 18 2
14 -5 -5 -7 3 -11 23 -11 32 0 51 -22 51 -59 0 -12 3 -20 8 -20 20 3 32 -3 32
-17 0 -8 14 -20 30 -25 27 -10 35 -20 31 -42 -1 -4 6 -10 14 -13 8 -4 15 -12
15 -19 0 -8 9 -16 19 -20 13 -4 18 -12 14 -22 -5 -12 -3 -14 7 -8 10 6 12 2 8
-19 -4 -18 -1 -26 8 -26 18 0 54 -36 54 -54 0 -8 7 -17 16 -20 13 -5 14 -9 4
-22 -11 -12 -11 -17 0 -27 10 -10 11 -9 5 3 -5 8 -4 12 0 7 11 -9 14 -47 4
-47 -4 0 -9 3 -12 8 -2 4 -2 1 0 -7 2 -8 -2 -18 -9 -23 -9 -5 -10 -8 -1 -8 6
0 14 4 18 10 3 6 15 5 30 -2 20 -9 25 -19 25 -50 0 -21 4 -38 8 -38 4 0 8 -10
8 -22 0 -38 26 -138 35 -132 5 3 6 -2 3 -11 -4 -8 0 -23 7 -32 10 -12 10 -15
2 -9 -16 9 -16 9 -3 -34 18 -62 22 -135 10 -180 -7 -25 -14 -77 -16 -117 -1
-40 -9 -83 -16 -95 -7 -13 -12 -27 -13 -31 0 -4 -5 -11 -11 -15 -13 -9 -15
-43 -2 -59 5 -7 5 -14 -2 -18 -5 -3 -10 -15 -10 -25 0 -10 -9 -25 -20 -33 -11
-8 -23 -28 -26 -45 -4 -18 -10 -32 -14 -32 -5 0 -11 -15 -15 -32 -11 -54 -16
-69 -24 -64 -4 3 -13 -9 -20 -24 -7 -16 -16 -29 -19 -29 -19 3 -25 -2 -12 -11
12 -8 9 -15 -18 -43 -17 -18 -32 -38 -32 -44 0 -6 -9 -13 -20 -16 -12 -3 -20
-14 -20 -26 0 -17 -6 -21 -31 -21 -28 0 -31 -2 -25 -24 3 -14 1 -28 -6 -32 -7
-5 -8 -3 -3 6 5 9 4 11 -3 6 -7 -4 -12 -14 -12 -22 0 -8 -10 -14 -24 -14 -17
0 -27 -7 -32 -22 -7 -25 -42 -57 -61 -58 -7 0 -13 -4 -13 -10 0 -5 -13 -16
-30 -25 -16 -9 -30 -13 -30 -11 0 3 -12 -6 -26 -21 -18 -18 -32 -24 -50 -20
-20 3 -28 -1 -36 -19 -6 -13 -15 -21 -20 -18 -4 3 -6 9 -3 14 3 5 0 12 -6 16
-8 4 -9 3 -5 -4 4 -7 2 -12 -3 -12 -6 0 -11 -9 -11 -21 0 -11 -4 -18 -9 -14
-5 3 -12 1 -15 -4 -3 -4 -24 -11 -46 -15 -22 -3 -40 -11 -40 -17 0 -5 -4 -7
-10 -4 -5 3 -10 1 -10 -5 0 -6 -10 -8 -24 -4 -13 3 -34 1 -46 -6 -12 -6 -36
-12 -53 -12 -18 0 -42 -7 -54 -14 -27 -17 -303 -20 -303 -4 0 6 -15 10 -34 10
-19 0 -38 5 -41 10 -8 13 -62 13 -70 0 -5 -8 -11 -8 -19 -1 -7 6 -27 11 -44
13 -17 1 -33 7 -36 14 -2 6 -14 14 -25 17 -14 3 -19 1 -14 -6 4 -7 -5 -4 -20
6 -14 9 -33 17 -40 17 -8 0 -26 11 -41 25 -27 25 -53 34 -41 15 3 -5 1 -10 -6
-10 -6 0 -9 8 -6 19 3 14 -1 18 -23 19 -32 1 -99 42 -100 61 0 7 -6 11 -15 7
-8 -3 -15 -1 -15 4 0 6 -7 10 -15 10 -8 0 -20 9 -27 19 -6 10 -18 17 -25 14
-16 -6 -16 2 -2 30 9 18 9 20 -2 9 -16 -14 -33 -16 -24 -2 3 5 -1 10 -10 10
-8 0 -18 7 -21 15 -4 8 -10 13 -14 10 -5 -3 -12 0 -16 6 -4 8 -3 9 4 5 16 -10
15 17 0 32 -7 7 -22 12 -35 12 -18 0 -23 6 -23 24 0 13 -7 29 -15 36 -8 7 -15
24 -15 37 0 23 -2 24 -17 12 -14 -12 -16 -12 -8 0 6 11 4 13 -8 8 -10 -3 -17
-2 -17 4 0 6 -5 7 -12 3 -7 -5 -8 -3 -4 5 10 16 -13 73 -27 64 -6 -4 -8 0 -4
10 3 9 3 16 -1 16 -23 -4 -32 4 -32 26 0 14 -7 28 -15 31 -8 4 -15 13 -15 21
0 8 4 12 9 8 5 -3 13 0 17 7 4 7 4 10 0 6 -10 -8 -44 24 -39 37 2 6 -6 20 -17
32 -12 14 -20 36 -20 57 0 23 -6 38 -17 45 -17 9 -17 11 2 25 12 9 15 15 7 16
-13 0 -44 62 -41 83 4 36 -2 107 -10 103 -21 -13 -28 134 -10 214 5 25 11 58
13 73 2 16 9 33 17 38 9 5 14 27 14 64 0 30 3 55 7 55 4 0 5 6 2 14 -3 8 0 17
6 21 9 6 9 10 -1 16 -10 6 -11 9 -1 9 7 0 12 13 12 30 0 20 5 30 15 30 16 0
39 36 30 49 -3 5 -1 11 5 13 5 1 11 15 12 30 1 15 6 24 10 22 4 -3 8 6 8 20 0
26 6 29 50 27 14 -1 21 2 15 6 -5 4 -11 26 -11 47 -1 37 -1 38 13 20 10 -13
14 -15 13 -4 -4 31 1 37 26 34 18 -2 23 1 16 8 -7 7 -2 21 14 45 13 20 22 38
20 42 -3 4 4 12 15 19 15 10 19 10 19 0 0 -7 11 4 25 25 15 21 34 37 45 37 11
0 20 6 20 14 0 7 11 25 25 40 14 15 25 24 25 20 0 -5 5 -3 12 4 7 7 17 8 30 1
10 -5 18 -8 19 -7 9 33 6 38 -19 33 -23 -5 -24 -4 -7 4 11 5 16 10 12 10 -5 1
-5 6 -1 12 4 8 9 7 15 -2 7 -11 9 -11 9 -1 0 7 4 11 10 7 5 -3 25 10 45 30 27
26 46 35 76 37 24 2 38 7 35 14 -3 7 3 10 13 7 9 -2 30 7 46 21 17 15 36 24
43 21 14 -5 63 15 58 24 -2 3 9 6 26 7 20 1 25 -2 16 -7 -7 -5 -9 -9 -5 -9 11
0 71 33 75 41 1 3 14 4 27 1 14 -2 23 -8 20 -12 -3 -5 4 -6 14 -3 13 3 18 11
14 21 -3 11 -2 13 4 6 4 -7 21 -10 38 -7z m1170 -456 c3 -5 1 -12 -5 -16 -5
-3 -10 1 -10 9 0 18 6 21 15 7z m162 -503 c-3 -7 -5 -2 -5 12 0 14 2 19 5 13
2 -7 2 -19 0 -25z m303 -208 c0 -5 -2 -10 -4 -10 -3 0 -8 5 -11 10 -3 6 -1 10
4 10 6 0 11 -4 11 -10z m-78 -187 c-19 -7 -4 -23 16 -16 13 5 14 3 6 -6 -9
-10 -17 -10 -33 -1 -12 6 -26 8 -31 5 -6 -3 -10 -2 -10 3 0 14 7 17 37 19 15
1 22 -1 15 -4z m-32 -59 c0 -8 -5 -12 -10 -9 -6 4 -8 11 -5 16 9 14 15 11 15
-7z m-85 -334 c3 -5 1 -10 -5 -10 -7 0 -10 -7 -7 -15 4 -8 3 -16 -1 -19 -4 -3
-9 9 -10 25 -2 28 11 39 23 19z m85 -41 c0 -5 -4 -7 -10 -4 -5 3 -10 1 -10 -6
0 -7 -3 -10 -6 -6 -8 7 4 27 17 27 5 0 9 -5 9 -11z m-186 -125 c3 -8 2 -12 -4
-9 -6 3 -10 10 -10 16 0 14 7 11 14 -7z m44 -15 c-19 -13 -28 -11 -28 5 0 9 7
12 21 9 16 -4 17 -8 7 -14z m-68 -49 c0 -5 -2 -10 -4 -10 -3 0 -8 5 -11 10 -3
6 -1 10 4 10 6 0 11 -4 11 -10z m35 -30 c-3 -5 -12 -10 -18 -10 -7 0 -6 4 3
10 19 12 23 12 15 0z m-1 -155 c3 -8 1 -15 -4 -15 -6 0 -10 7 -10 15 0 8 2 15
4 15 2 0 6 -7 10 -15z m-284 -9 c0 -3 -4 -8 -10 -11 -5 -3 -10 -1 -10 4 0 6 5
11 10 11 6 0 10 -2 10 -4z m-13 -181 c0 -8 -4 -12 -9 -9 -4 3 -8 9 -8 15 0 5
4 9 8 9 5 0 9 -7 9 -15z m-82 -36 c11 -16 1 -19 -13 -3 -7 8 -8 14 -3 14 5 0
13 -5 16 -11z m-1048 -35 c-3 -3 -12 -4 -19 -1 -8 3 -5 6 6 6 11 1 17 -2 13
-5z m773 -78 c-6 -8 -18 -12 -26 -9 -19 7 -7 23 18 23 17 0 18 -3 8 -14z m47
-11 c0 -8 -4 -12 -9 -9 -5 3 -6 10 -3 15 9 13 12 11 12 -6z m-53 -96 c-4 -7
-1 -10 7 -7 17 6 49 -9 49 -23 0 -6 -4 -8 -9 -5 -5 3 -12 -6 -16 -22 l-8 -27
-12 28 c-6 16 -18 33 -26 38 -12 8 -12 10 1 19 20 13 23 12 14 -1z m-50 -30
c-3 -5 -10 -7 -15 -3 -5 3 -7 10 -3 15 3 5 10 7 15 3 5 -3 7 -10 3 -15z"/>
<path d="M1776 2835 c-4 -19 -10 -35 -14 -35 -4 0 -7 -10 -8 -22 -2 -84 -22
-244 -32 -262 -7 -12 -20 21 -21 52 -1 12 -10 31 -21 42 -11 11 -20 27 -20 36
0 8 -4 12 -10 9 -6 -3 -10 4 -10 16 0 41 -8 15 -18 -59 -6 -41 -13 -76 -15
-78 -9 -9 -37 9 -30 19 4 6 0 8 -10 4 -19 -7 -21 1 -7 23 8 12 10 12 10 1 0
-8 2 -12 5 -10 2 3 0 18 -4 35 -8 24 -9 25 -10 7 -1 -25 -31 -33 -31 -9 0 7
-7 19 -15 26 -8 7 -15 25 -15 40 0 24 -13 37 -40 42 -3 1 -10 8 -17 17 -10 13
-12 2 -12 -57 1 -40 4 -71 7 -68 8 8 37 -60 52 -122 14 -58 8 -80 -11 -38 -7
14 -20 26 -29 26 -10 0 -23 7 -30 15 -11 13 -10 14 6 9 12 -4 8 3 -11 20 -16
14 -36 23 -44 20 -8 -2 -18 1 -23 8 -5 8 -7 1 -6 -20 1 -18 8 -38 15 -44 7 -6
13 -17 13 -26 0 -8 12 -26 26 -39 14 -13 27 -29 28 -36 1 -7 5 -18 9 -24 5 -8
4 -13 -2 -13 -6 0 -11 4 -11 8 0 11 -78 62 -95 62 -29 0 -46 12 -35 25 8 10 3
15 -21 24 -18 6 -45 11 -60 11 -22 0 -29 5 -29 20 0 27 -55 24 -58 -4 -2 -27
16 -56 31 -50 8 3 18 -6 25 -21 6 -14 16 -25 21 -25 15 0 61 -49 61 -65 0 -13
-40 -22 -73 -16 -5 1 -6 -3 -2 -9 4 -6 -4 -10 -19 -10 -14 0 -26 -4 -26 -10 0
-5 6 -10 13 -10 7 0 20 -8 29 -17 19 -21 65 -59 93 -78 33 -22 11 -27 -70 -16
-42 6 -102 11 -133 11 -43 0 -53 3 -42 11 12 9 11 10 -5 4 -11 -4 -34 -9 -51
-12 l-32 -5 3 43 c3 60 15 100 27 93 7 -5 9 5 6 25 -3 18 -1 34 4 37 4 3 8 20
8 39 0 37 -18 49 -54 35 -13 -5 -27 -6 -32 -2 -4 4 -4 1 0 -6 4 -7 13 -10 19
-6 7 3 0 -5 -15 -18 -16 -13 -28 -29 -28 -36 0 -7 -4 -12 -10 -12 -5 0 -9 -3
-9 -7 4 -26 -4 -42 -23 -48 -13 -4 -25 -7 -28 -7 -3 0 -6 -8 -6 -18 0 -10 5
-16 11 -13 5 4 2 -3 -9 -15 -10 -11 -20 -38 -23 -59 -3 -21 -8 -40 -12 -43
-12 -8 -24 -42 -29 -80 -2 -19 -7 -37 -12 -40 -12 -8 -18 -70 -6 -70 6 0 5 -4
-3 -9 -10 -7 -14 -40 -14 -137 0 -71 3 -139 7 -151 5 -14 3 -23 -3 -23 -8 0
-8 -6 -1 -17 8 -16 31 -98 47 -170 3 -13 9 -23 14 -23 5 0 9 -17 9 -39 0 -21
6 -44 14 -50 10 -8 12 -21 6 -47 -6 -26 -5 -32 4 -25 7 6 17 6 26 1 13 -8 13
-10 1 -10 -8 0 -11 -3 -7 -7 4 -5 13 -8 18 -8 6 0 13 -13 15 -30 3 -16 8 -32
12 -35 4 -3 13 -15 20 -28 7 -12 16 -20 22 -17 5 4 9 2 9 -4 0 -5 -6 -12 -12
-14 -7 -3 -3 -6 10 -6 15 -1 22 -7 22 -21 0 -11 5 -20 11 -20 6 0 8 -9 4 -22
-7 -23 -7 -23 9 -3 14 18 15 18 16 2 0 -9 3 -16 8 -16 20 3 32 -2 32 -15 0 -7
6 -19 14 -26 8 -6 12 -18 9 -26 -3 -8 -2 -14 3 -13 27 5 54 -3 54 -15 0 -8 5
-18 12 -22 7 -5 8 -2 3 7 -5 8 -4 11 1 6 5 -5 9 -14 9 -20 0 -7 5 -12 10 -12
12 0 84 -44 103 -62 23 -22 52 -34 64 -27 7 4 8 3 4 -4 -5 -8 2 -12 18 -12 14
0 26 -4 26 -9 0 -8 56 -25 73 -22 4 0 7 -3 7 -9 0 -5 16 -10 36 -10 19 0 33
-4 30 -8 -2 -4 3 -9 12 -10 9 -1 53 -6 97 -12 110 -13 132 -8 145 38 20 73 6
233 -29 324 -8 20 -7 29 4 38 12 10 16 9 21 -6 32 -100 48 -99 65 1 7 43 21
84 30 94 10 10 15 22 12 25 -4 3 -2 6 4 6 6 0 14 15 18 33 3 17 17 55 31 82
13 28 21 39 18 25 -4 -19 -3 -22 5 -10 6 8 11 23 11 32 0 9 6 23 13 30 8 7 20
27 28 43 9 19 21 29 32 27 9 -2 17 2 17 8 0 5 7 10 15 10 8 0 15 5 15 11 0 5
-4 7 -10 4 -6 -3 -7 1 -4 9 3 9 10 13 15 11 5 -3 11 6 15 21 6 22 11 25 39 22
24 -3 31 0 28 9 -3 7 -10 10 -17 7 -6 -3 -1 3 11 14 12 11 20 22 18 26 -3 3
-2 4 2 1 3 -3 14 2 24 11 10 9 25 14 33 11 10 -4 13 -1 10 7 -3 8 5 16 21 20
14 4 23 11 20 16 -6 10 7 12 72 15 25 0 29 -2 21 -12 -6 -7 -14 -10 -19 -7 -5
3 -9 -2 -9 -10 0 -10 -6 -13 -17 -9 -11 4 -14 3 -9 -5 7 -11 -5 -16 -30 -13
-7 1 -14 -5 -18 -14 -3 -8 -12 -15 -21 -15 -8 0 -15 -9 -15 -19 0 -11 -9 -23
-22 -27 -12 -3 -39 -25 -61 -48 -21 -22 -43 -40 -48 -38 -6 1 -8 -2 -4 -8 8
-13 -14 -42 -25 -35 -4 3 -10 -4 -13 -15 -3 -13 -14 -20 -30 -20 -14 0 -27 -7
-30 -14 -4 -11 -1 -13 11 -10 15 5 15 4 0 -9 -10 -8 -18 -22 -18 -31 0 -9 -8
-16 -20 -16 -13 0 -20 -7 -20 -19 0 -10 -7 -24 -15 -31 -8 -7 -13 -16 -10 -20
3 -4 -6 -19 -19 -33 -13 -14 -21 -29 -18 -32 4 -3 1 -9 -5 -13 -19 -12 -46
-104 -32 -112 8 -6 8 -9 0 -14 -6 -4 -12 -4 -13 1 -3 16 -19 -143 -23 -227 -5
-108 5 -136 52 -145 19 -3 47 -4 61 -1 15 3 50 8 77 11 28 3 51 9 53 15 2 5 9
7 17 4 20 -8 92 14 98 30 3 8 20 17 38 21 18 4 39 13 46 21 8 7 21 10 29 7 9
-3 19 -2 23 3 14 20 71 54 91 54 11 0 20 5 20 11 0 6 7 9 15 5 8 -3 15 -1 15
4 0 6 -4 10 -10 10 -5 0 -10 5 -10 11 0 6 9 8 20 4 16 -5 20 -2 20 14 0 16 6
21 24 21 16 0 27 7 31 20 3 11 10 20 15 20 4 0 11 11 14 25 4 16 11 22 21 19
13 -6 20 6 16 29 0 4 2 6 6 6 22 -4 33 3 33 20 0 10 7 21 15 25 8 3 15 13 15
23 0 15 4 14 20 -7 11 -14 20 -22 21 -17 5 26 4 34 -10 51 -9 11 -10 16 -3 12
8 -5 14 2 18 23 4 17 10 31 15 31 5 0 9 9 9 19 0 11 10 27 21 35 13 9 19 21
16 30 -5 14 1 37 32 111 30 72 41 106 46 150 3 28 8 66 10 85 7 55 6 218 -1
295 -4 39 -7 84 -7 101 -1 22 -5 30 -14 27 -7 -3 -14 2 -14 11 -1 9 -2 22 -3
29 -1 6 -7 17 -13 22 -7 6 -15 28 -17 49 -3 22 -9 42 -14 45 -5 3 -15 21 -23
39 -8 17 -18 32 -24 32 -17 0 -34 47 -21 60 8 8 7 9 -6 5 -12 -5 -21 0 -28 17
-6 12 -25 33 -42 45 l-32 22 -16 -27 c-21 -33 -17 -61 21 -136 33 -67 36 -84
13 -93 -13 -5 -13 -7 -2 -14 10 -7 10 -9 -2 -9 -8 0 -43 -2 -77 -4 -42 -3 -61
0 -56 6 4 7 -4 8 -23 3 -16 -5 -39 -9 -51 -9 -11 -1 -19 -4 -17 -8 4 -6 -66 1
-75 8 -8 7 12 24 28 24 10 0 28 11 41 25 13 14 38 28 57 31 18 3 33 10 33 15
0 12 -41 28 -57 22 -7 -3 -13 0 -13 7 0 7 -6 6 -16 -4 -8 -9 -18 -16 -22 -16
-16 0 -33 18 -30 30 2 7 -3 15 -10 17 -16 6 -13 -28 3 -39 16 -12 -16 -36 -58
-44 -37 -6 -38 -6 -26 14 7 11 17 18 21 16 4 -3 8 2 8 10 0 9 4 16 8 16 5 0
15 11 22 25 10 19 19 24 34 19 13 -3 17 -2 9 3 -10 7 -8 13 7 26 11 9 23 17
26 17 9 0 53 55 54 68 0 6 9 12 20 12 25 0 28 45 4 54 -9 3 -12 2 -8 -5 3 -6
-1 -10 -12 -9 -35 4 -44 0 -44 -20 0 -20 -7 -22 -68 -23 -12 0 -21 -1 -19 -4
2 -2 -11 -19 -28 -38 -32 -34 -85 -57 -85 -37 0 18 27 62 33 55 4 -3 7 8 7 25
0 18 5 32 10 32 6 0 10 9 10 20 0 22 -10 26 -28 8 -8 -8 -15 -8 -28 3 -12 9
-15 10 -10 2 4 -7 2 -13 -3 -13 -6 0 -11 -8 -12 -17 0 -15 -2 -15 -9 2 -8 19
-9 19 -9 -2 -1 -24 -41 -73 -41 -50 0 7 -7 4 -15 -7 -11 -14 -15 -16 -15 -5 0
8 7 23 15 33 8 11 15 28 15 37 0 10 6 22 13 26 6 4 13 17 14 28 6 52 13 114
19 149 l6 38 -32 -33 c-26 -28 -33 -31 -41 -19 -8 11 -9 9 -4 -9 5 -17 4 -22
-5 -16 -9 6 -11 4 -5 -4 8 -15 -14 -63 -26 -56 -4 3 -10 -8 -14 -25 -4 -17
-15 -35 -25 -40 -11 -6 -17 -17 -14 -25 4 -8 2 -15 -4 -15 -6 0 -14 -12 -19
-26 -6 -17 -7 8 -5 74 2 55 0 107 -5 117 -8 14 -12 12 -26 -17 -13 -25 -17
-28 -17 -13 l-1 20 -9 -20 c-5 -11 -9 -37 -9 -57 -1 -21 -5 -38 -11 -38 -5 0
-10 -8 -10 -17 0 -16 -1 -16 -17 0 -13 13 -21 48 -30 130 -11 112 -26 193 -36
203 -2 3 -8 -11 -11 -31z m-381 -315 c3 -6 -1 -7 -9 -4 -18 7 -21 14 -7 14 6
0 13 -4 16 -10z m233 -39 c-15 -6 -20 7 -12 31 l8 23 6 -25 c3 -14 2 -27 -2
-29z m536 -115 c-3 -9 -10 -16 -15 -16 -6 0 -5 9 1 21 13 24 24 20 14 -5z
m-292 -20 c52 -23 72 -29 82 -27 17 4 74 -32 69 -44 -2 -7 13 -19 36 -29 28
-11 41 -22 41 -35 0 -11 8 -22 18 -25 28 -9 44 -43 31 -67 -6 -11 -7 -24 -3
-27 4 -4 9 -1 11 6 7 18 23 15 23 -5 0 -9 10 -27 22 -40 15 -17 21 -34 20 -64
-3 -57 9 -69 66 -63 26 2 67 5 92 5 34 1 40 3 25 9 -17 7 -18 9 -2 9 24 1 97
25 97 31 0 3 -21 12 -47 19 -27 7 -60 17 -75 23 -15 5 -31 8 -35 5 -5 -3 -15
-2 -23 4 -11 6 -3 9 25 10 35 1 37 2 15 9 -24 8 -23 8 8 9 22 1 31 5 26 12 -4
7 -1 10 7 7 8 -3 36 4 64 14 27 10 58 18 68 18 11 0 15 5 11 11 -4 8 8 9 42 4
27 -3 51 -9 54 -11 3 -3 5 -78 4 -167 -1 -198 -16 -277 -65 -337 -12 -14 -18
-20 -15 -13 4 7 2 20 -4 30 -9 13 -8 26 1 48 28 69 19 108 -25 116 -12 3 -20
13 -21 26 -1 12 2 20 6 18 7 -5 19 18 19 36 0 5 -13 9 -28 9 -16 0 -32 3 -35
6 -8 9 -277 11 -277 3 0 -7 -86 -24 -110 -22 -8 1 -19 -5 -23 -13 -4 -7 -26
-17 -47 -20 -22 -4 -40 -10 -40 -15 0 -5 -14 -9 -30 -9 -18 0 -37 -8 -47 -20
-10 -11 -28 -20 -41 -20 -18 0 -23 -4 -18 -16 3 -8 2 -12 -3 -9 -5 3 -12 -3
-15 -13 -4 -10 -17 -24 -30 -31 -25 -14 -35 -8 -110 64 -17 16 -38 30 -46 32
-8 1 -16 7 -18 13 -2 5 -8 8 -13 5 -5 -4 -30 4 -56 15 -27 12 -55 23 -63 25
-8 2 -31 9 -50 15 -19 7 -53 14 -75 16 -22 2 -70 9 -107 14 -88 13 -221 13
-213 0 3 -6 -1 -7 -9 -4 -23 9 -20 -6 7 -34 21 -23 21 -24 1 -14 -16 8 -21 8
-21 -2 0 -9 11 -12 33 -9 31 3 48 -8 49 -32 0 -5 9 -11 20 -12 l20 -3 -20 9
c-18 8 -18 10 -2 10 10 1 20 -6 23 -14 4 -8 9 -13 13 -11 10 6 91 -40 84 -48
-4 -4 0 -4 10 0 10 3 17 1 17 -5 0 -6 16 -19 35 -28 40 -19 43 -28 16 -43 -25
-13 -44 -13 -36 0 3 6 1 10 -5 10 -6 0 -18 7 -27 15 -8 8 -20 12 -26 8 -8 -4
-7 -1 1 9 15 19 2 31 -23 22 -11 -5 -18 0 -22 15 -4 18 -12 21 -47 19 -34 -3
-41 0 -38 14 2 12 -3 16 -18 13 -11 -2 -20 0 -20 5 0 5 -10 14 -22 20 -22 11
-22 11 -3 -5 18 -15 18 -15 -14 -9 -25 5 -32 4 -27 -4 4 -7 2 -12 -3 -12 -20
0 -12 -74 9 -93 11 -9 20 -24 20 -32 0 -8 5 -15 10 -15 6 0 10 -5 10 -11 0 -5
-4 -7 -10 -4 -6 3 -7 -1 -4 -9 3 -9 9 -14 13 -12 3 2 14 -7 24 -20 13 -17 14
-24 5 -25 -7 0 -2 -5 11 -10 17 -7 22 -15 18 -29 -3 -11 -1 -18 3 -15 5 3 11
2 14 -3 3 -5 -8 -8 -24 -8 -16 0 -27 3 -24 8 3 4 -2 8 -10 8 -10 0 -16 9 -16
21 0 15 -5 19 -16 15 -12 -4 -14 -1 -9 14 4 13 2 20 -5 18 -7 -2 -17 6 -23 17
-7 11 -15 22 -18 25 -13 12 -49 102 -44 110 4 6 3 16 -2 23 -17 26 -20 241 -5
341 9 62 32 80 62 48 20 -21 32 -26 57 -23 6 1 14 -3 18 -9 3 -5 17 -10 30
-10 26 0 42 -16 23 -23 -7 -2 1 -4 17 -4 40 -1 133 -25 117 -30 -9 -4 -10 -8
-2 -18 9 -11 4 -12 -25 -5 -29 7 -35 5 -31 -5 3 -9 0 -12 -9 -9 -8 3 -20 2
-27 -2 -15 -10 -20 -11 -55 -13 l-27 -1 21 -21 c22 -23 85 -37 163 -38 26 -1
51 -6 58 -13 9 -9 12 -8 12 5 0 9 5 17 10 17 6 0 10 18 10 39 0 22 5 43 10 46
6 3 10 14 10 25 0 10 6 20 13 23 8 3 24 32 36 66 20 52 28 62 57 71 19 7 32
15 30 19 -15 24 65 80 119 84 11 0 22 4 25 7 3 4 23 14 45 23 50 20 144 22
187 3z m-592 -56 c0 -5 -4 -10 -10 -10 -5 0 -10 5 -10 10 0 6 5 10 10 10 6 0
10 -4 10 -10z m41 -27 c13 -16 12 -17 -3 -4 -10 7 -18 15 -18 17 0 8 8 3 21
-13z m1310 -126 c-4 -4 -18 -3 -32 2 -24 10 -24 10 -1 10 12 1 22 7 22 14 0 8
3 7 10 -3 5 -8 6 -18 1 -23z m-176 -337 c-3 -5 2 -10 11 -10 10 0 15 -3 11 -6
-3 -3 -15 -3 -28 1 -17 6 -19 9 -8 16 18 11 22 11 14 -1z m-38 -31 c-9 -6 -21
-8 -26 -5 -4 3 -7 -6 -5 -19 1 -17 -1 -23 -9 -18 -7 4 -15 8 -19 9 -5 1 -11 2
-15 3 -17 3 39 36 64 38 22 1 24 -1 10 -8z m-1187 -53 c0 -2 -7 -7 -16 -10 -8
-3 -12 -2 -9 4 6 10 25 14 25 6z m142 -60 c10 -7 15 -16 11 -19 -3 -4 0 -7 8
-7 8 0 22 -8 31 -17 28 -30 46 -42 52 -36 3 3 12 -8 19 -26 7 -17 16 -28 20
-24 4 3 7 1 7 -6 0 -7 20 -32 45 -57 25 -24 45 -51 45 -59 0 -8 9 -20 20 -27
11 -7 27 -35 36 -61 9 -27 22 -51 30 -54 8 -3 14 -15 14 -27 1 -11 7 -32 15
-46 17 -29 19 -60 5 -60 -5 0 -10 8 -11 18 0 15 -2 14 -10 -3 -7 -16 -8 -13
-4 13 4 30 -1 37 -27 33 -3 0 -2 14 2 31 11 37 4 54 -16 37 -11 -9 -14 -8 -14
5 0 9 -4 16 -9 16 -5 0 -12 11 -15 25 -4 17 -11 23 -23 18 -11 -4 -14 -3 -9 5
4 7 2 12 -3 12 -6 0 -11 9 -11 20 0 11 -4 20 -10 20 -5 0 -10 5 -10 11 0 5 6
7 13 3 7 -4 9 -3 4 2 -5 5 -12 9 -17 9 -11 0 -60 54 -61 68 -1 7 0 18 1 26 1
8 -4 12 -12 9 -20 -8 -58 9 -58 27 0 8 -5 15 -11 15 -5 0 -7 5 -4 10 6 9 -7
14 -27 11 -4 0 -5 6 -2 14 4 10 0 15 -13 15 -11 0 -29 9 -42 21 -21 20 -21 22
-4 35 22 17 24 17 45 0z m1186 -69 c1 -22 -2 -36 -7 -33 -5 3 -23 -10 -40 -30
-18 -20 -36 -32 -43 -28 -7 5 -8 3 -3 -6 6 -10 4 -12 -9 -7 -13 5 -17 3 -13
-7 3 -8 -1 -20 -9 -26 -8 -7 -14 -9 -14 -5 0 4 -7 2 -16 -6 -10 -8 -8 0 6 24
12 20 26 37 32 37 5 0 6 5 3 10 -3 6 -1 10 4 10 6 0 11 7 11 15 0 8 6 15 14
15 8 0 18 5 22 12 4 7 3 8 -4 4 -7 -4 -12 -3 -12 1 0 5 9 14 20 21 11 7 20 19
20 28 0 9 7 14 17 12 12 -2 18 -15 21 -41z m-1429 -118 c-10 -19 -8 -20 10
-14 12 3 21 2 21 -3 0 -14 -34 -25 -38 -13 -2 6 -8 8 -14 5 -5 -4 -2 5 7 20
21 31 30 35 14 5z m1556 -319 c3 -5 1 -10 -4 -10 -6 0 -11 5 -11 10 0 6 2 10
4 10 3 0 8 -4 11 -10z"/>
<path d="M1980 2240 c0 -5 5 -10 10 -10 6 0 10 5 10 10 0 6 -4 10 -10 10 -5 0
-10 -4 -10 -10z"/>
<path d="M1460 2185 c0 -8 6 -15 14 -15 8 0 16 7 20 15 4 10 -1 15 -14 15 -11
0 -20 -7 -20 -15z"/>
<path d="M1739 2140 c-8 -4 -28 -14 -46 -23 -18 -8 -41 -13 -53 -10 -16 4 -19
2 -14 -13 4 -11 4 -16 0 -13 -4 4 -28 1 -53 -7 -25 -8 -49 -11 -54 -8 -5 3
-12 -3 -16 -13 -4 -10 -11 -21 -17 -26 -10 -7 28 -46 46 -47 4 0 19 -5 35 -12
15 -6 31 -11 36 -10 4 1 7 -5 7 -14 0 -9 8 -22 17 -29 9 -7 17 -26 18 -41 0
-16 5 -28 10 -27 6 0 16 -5 23 -13 11 -12 9 -14 -7 -14 -25 0 -36 -15 -13 -17
9 -1 33 -5 52 -8 93 -16 124 -12 158 22 7 7 19 13 25 13 7 0 20 20 30 44 10
24 28 48 40 55 21 11 21 11 -3 5 l-25 -6 27 21 c31 25 54 27 62 6 9 -24 23
-17 44 23 l19 38 -21 27 c-17 21 -30 27 -60 27 -26 0 -57 11 -98 36 -58 36
-132 50 -169 34z"/>
<path d="M1668 2133 c7 -3 16 -2 19 1 4 3 -2 6 -13 5 -11 0 -14 -3 -6 -6z"/>
<path d="M1628 2123 c7 -3 16 -2 19 1 4 3 -2 6 -13 5 -11 0 -14 -3 -6 -6z"/>
<path d="M2621 2084 c0 -11 3 -14 6 -6 3 7 2 16 -1 19 -3 4 -6 -2 -5 -13z"/>
<path d="M2160 2020 c0 -5 5 -10 11 -10 5 0 7 5 4 10 -3 6 -8 10 -11 10 -2 0
-4 -4 -4 -10z"/>
<path d="M2605 1740 c-3 -5 -1 -10 4 -10 6 0 11 5 11 10 0 6 -2 10 -4 10 -3 0
-8 -4 -11 -10z"/>
<path d="M985 1659 c-4 -6 -5 -12 -2 -15 2 -3 7 2 10 11 7 17 1 20 -8 4z"/>
<path d="M1340 1646 c0 -9 5 -16 10 -16 6 0 10 4 10 9 0 6 -4 13 -10 16 -5 3
-10 -1 -10 -9z"/>
<path d="M1330 2470 c-8 -5 -11 -12 -7 -16 4 -4 13 -2 19 4 15 15 7 24 -12 12z"/>
<path d="M674 2248 c3 -15 26 -23 26 -8 0 6 -4 9 -9 6 -5 -4 -12 -1 -14 4 -3
6 -4 5 -3 -2z"/>
<path d="M606 2073 c-6 -14 -5 -15 5 -6 7 7 10 15 7 18 -3 3 -9 -2 -12 -12z"/>
<path d="M2951 1511 c-8 -15 -8 -22 1 -27 7 -4 10 -4 6 1 -4 4 -3 14 4 22 6 7
8 16 5 19 -3 3 -10 -3 -16 -15z"/>
<path d="M1727 1079 c4 -13 8 -18 11 -10 2 7 -1 18 -6 23 -8 8 -9 4 -5 -13z"/>
<path d="M2706 1022 c-3 -5 1 -9 9 -9 8 0 12 4 9 9 -3 4 -7 8 -9 8 -2 0 -6 -4
-9 -8z"/>
<path d="M1348 733 c6 -2 18 -2 25 0 6 3 1 5 -13 5 -14 0 -19 -2 -12 -5z"/>
<path d="M1260 700 c8 -5 20 -10 25 -10 6 0 3 5 -5 10 -8 5 -19 10 -25 10 -5
0 -3 -5 5 -10z"/>
<path d="M2361 344 c0 -11 3 -14 6 -6 3 7 2 16 -1 19 -3 4 -6 -2 -5 -13z"/>
<path d="M2665 3060 c3 -5 -6 -17 -20 -26 -14 -9 -24 -23 -21 -30 3 -7 1 -16
-4 -19 -18 -11 -10 -64 13 -86 12 -12 17 -19 10 -15 -6 3 -14 2 -18 -4 -4 -6
11 -10 38 -10 39 0 46 -3 51 -25 4 -16 16 -27 32 -31 19 -5 22 -9 12 -15 -10
-7 -9 -9 4 -9 9 0 20 -9 23 -20 3 -11 10 -20 14 -20 15 0 71 -57 71 -73 0 -9
5 -19 10 -22 6 -3 10 -19 10 -36 0 -22 5 -29 20 -29 14 0 30 -15 48 -45 15
-25 33 -45 39 -45 7 0 13 -5 13 -11 0 -6 -6 -9 -14 -6 -24 9 -11 -51 16 -81
14 -15 29 -37 33 -49 4 -15 14 -23 28 -23 18 0 19 -2 7 -10 -27 -17 -1 -10 37
10 47 25 54 25 81 0 18 -17 22 -18 22 -5 0 9 5 13 10 10 6 -3 10 4 10 17 0 19
2 20 10 8 7 -11 8 -5 3 20 -3 19 -12 41 -20 48 -7 7 -13 20 -13 28 0 8 -9 14
-20 14 -19 0 -24 16 -23 67 0 7 -2 12 -6 11 -3 0 -17 0 -31 1 -17 1 -21 4 -12
9 17 11 0 57 -27 74 -15 9 -17 16 -9 25 7 9 4 25 -12 57 -16 34 -28 46 -51 51
-16 4 -29 12 -28 18 4 31 -2 58 -11 52 -6 -4 -7 -11 -4 -17 4 -7 2 -8 -4 -4
-6 4 -9 13 -5 21 4 11 -2 15 -24 15 -22 0 -29 5 -30 21 -1 12 -15 36 -30 53
-15 16 -20 24 -10 17 9 -8 17 -9 17 -3 0 14 -25 22 -67 22 -27 0 -34 3 -29 15
3 8 1 15 -4 15 -5 0 -12 11 -16 25 -3 14 -16 32 -27 40 -24 16 -102 21 -92 5z
m465 -620 c0 -5 -4 -10 -10 -10 -5 0 -10 5 -10 10 0 6 5 10 10 10 6 0 10 -4
10 -10z m-39 -23 c-13 -13 -26 -3 -16 12 3 6 11 8 17 5 6 -4 6 -10 -1 -17z
m-36 -7 c-3 -5 -12 -10 -18 -10 -7 0 -6 4 3 10 19 12 23 12 15 0z"/>
<path d="M2831 3014 c0 -11 3 -14 6 -6 3 7 2 16 -1 19 -3 4 -6 -2 -5 -13z"/>
<path d="M1330 3010 c0 -5 5 -10 11 -10 5 0 7 5 4 10 -3 6 -8 10 -11 10 -2 0
-4 -4 -4 -10z"/>
<path d="M2413 2935 c0 -8 4 -12 9 -9 4 3 8 9 8 15 0 5 -4 9 -8 9 -5 0 -9 -7
-9 -15z"/>
<path d="M520 2899 c-7 -11 -10 -21 -8 -22 2 -1 13 -7 25 -14 28 -16 40 8 12
26 -11 6 -17 16 -14 21 3 6 4 10 1 10 -3 0 -10 -9 -16 -21z"/>
<path d="M790 2721 c0 -6 4 -13 10 -16 6 -3 7 1 4 9 -7 18 -14 21 -14 7z"/>
<path d="M173 2223 c-10 -4 -10 -9 0 -24 10 -16 8 -21 -10 -34 -18 -13 -21
-23 -19 -70 2 -31 8 -61 14 -67 14 -14 16 -32 3 -23 -5 3 -12 2 -15 -3 -2 -4
12 -8 32 -9 22 0 41 -8 49 -19 10 -13 16 -15 24 -7 6 6 18 9 25 6 8 -3 33 1
57 8 l43 12 3 88 c2 78 0 88 -18 101 -12 8 -18 18 -13 23 4 4 -8 5 -26 2 -23
-5 -31 -3 -26 5 5 8 -4 9 -31 4 -27 -5 -40 -4 -46 6 -7 10 -9 9 -9 -4 0 -21
-17 -24 -22 -5 -2 8 -8 12 -15 10z"/>
<path d="M3116 2212 c-2 -4 -1 -14 4 -22 7 -11 9 -9 7 8 -1 24 -3 26 -11 14z"/>
<path d="M3213 2210 c-18 -4 -39 -12 -46 -19 -8 -6 -16 -8 -19 -6 -3 3 -14
-11 -24 -32 -24 -50 -22 -109 5 -132 11 -10 18 -21 14 -25 -3 -3 3 -6 15 -6
12 0 22 -3 22 -7 0 -10 95 -16 121 -8 12 4 18 13 15 21 -3 7 0 13 6 11 28 -6
33 118 5 152 -10 12 -9 13 3 7 8 -5 1 4 -16 20 -32 31 -50 35 -101 24z"/>
<path d="M3011 2174 c0 -11 3 -14 6 -6 3 7 2 16 -1 19 -3 4 -6 -2 -5 -13z"/>
<path d="M3106 2003 c-6 -14 -5 -15 5 -6 7 7 10 15 7 18 -3 3 -9 -2 -12 -12z"/>
<path d="M118 1594 c-5 -4 -8 -16 -8 -28 0 -14 3 -17 11 -9 6 6 9 19 7 28 -1
9 -6 13 -10 9z"/>
<path d="M140 1568 c0 -4 4 -8 9 -8 6 0 12 4 15 8 3 5 -1 9 -9 9 -8 0 -15 -4
-15 -9z"/>
<path d="M3290 1530 c0 -5 5 -10 11 -10 5 0 7 5 4 10 -3 6 -8 10 -11 10 -2 0
-4 -4 -4 -10z"/>
<path d="M171 1374 c0 -11 3 -14 6 -6 3 7 2 16 -1 19 -3 4 -6 -2 -5 -13z"/>
<path d="M3198 1303 c7 -3 16 -2 19 1 4 3 -2 6 -13 5 -11 0 -14 -3 -6 -6z"/>
<path d="M561 1074 c0 -11 3 -14 6 -6 3 7 2 16 -1 19 -3 4 -6 -2 -5 -13z"/>
<path d="M3150 1030 c0 -5 7 -10 15 -10 8 0 15 5 15 10 0 6 -7 10 -15 10 -8 0
-15 -4 -15 -10z"/>
<path d="M2781 894 c0 -11 3 -14 6 -6 3 7 2 16 -1 19 -3 4 -6 -2 -5 -13z"/>
<path d="M797 879 c7 -7 15 -10 18 -7 3 3 -2 9 -12 12 -14 6 -15 5 -6 -5z"/>
<path d="M765 831 c-3 -5 -2 -12 3 -15 5 -3 9 1 9 9 0 17 -3 19 -12 6z"/>
<path d="M2827 734 c6 -15 23 -19 23 -5 0 5 -7 11 -14 14 -10 4 -13 1 -9 -9z"/>
<path d="M870 705 c0 -5 5 -17 10 -25 5 -8 10 -10 10 -5 0 6 -5 17 -10 25 -5
8 -10 11 -10 5z"/>
<path d="M924 692 c3 -5 0 -13 -6 -15 -9 -4 -10 -6 -1 -6 17 -1 25 16 12 25
-7 4 -9 3 -5 -4z"/>
<path d="M1135 541 c-9 -8 -5 -22 4 -17 5 4 11 1 13 -6 5 -14 28 -2 28 15 0
12 -36 18 -45 8z"/>
<path d="M2300 530 c0 -5 7 -7 15 -4 8 4 15 8 15 10 0 2 -7 4 -15 4 -8 0 -15
-4 -15 -10z"/>
<path d="M1990 489 c0 -5 5 -7 10 -4 6 3 10 8 10 11 0 2 -4 4 -10 4 -5 0 -10
-5 -10 -11z"/>
<path d="M1868 483 c6 -2 18 -2 25 0 6 3 1 5 -13 5 -14 0 -19 -2 -12 -5z"/>
<path d="M765 450 c3 -5 11 -10 16 -10 6 0 7 5 4 10 -3 6 -11 10 -16 10 -6 0
-7 -4 -4 -10z"/>
<path d="M2670 415 l-25 -14 26 1 c14 1 26 8 26 15 0 7 -1 13 -1 13 -1 -1 -12
-7 -26 -15z"/>
<path d="M1701 374 c0 -11 3 -14 6 -6 3 7 2 16 -1 19 -3 4 -6 -2 -5 -13z"/>
<path d="M2002 330 c0 -14 2 -19 5 -12 2 6 2 18 0 25 -3 6 -5 1 -5 -13z"/>
<path d="M2385 221 c-7 -12 12 -24 25 -16 11 7 4 25 -10 25 -5 0 -11 -4 -15
-9z"/>
<path d="M1416 153 c-6 -14 -5 -15 5 -6 7 7 10 15 7 18 -3 3 -9 -2 -12 -12z"/>
<path d="M1965 160 c3 -5 8 -10 11 -10 2 0 4 5 4 10 0 6 -5 10 -11 10 -5 0 -7
-4 -4 -10z"/>
<path d="M1185 310 c-3 -5 -1 -10 4 -10 6 0 11 5 11 10 0 6 -2 10 -4 10 -3 0
-8 -4 -11 -10z"/>
<path d="M2078 3543 c7 -3 16 -2 19 1 4 3 -2 6 -13 5 -11 0 -14 -3 -6 -6z"/>
<path d="M990 3406 c7 -7 13 -7 20 0 6 6 3 10 -10 10 -13 0 -16 -4 -10 -10z"/>
<path d="M470 520 c0 -5 5 -10 11 -10 5 0 7 5 4 10 -3 6 -8 10 -11 10 -2 0 -4
-4 -4 -10z"/>
<path d="M540 410 c0 -5 5 -10 10 -10 6 0 10 5 10 10 0 6 -4 10 -10 10 -5 0
-10 -4 -10 -10z"/>
<path d="M605 400 c-3 -5 -1 -10 4 -10 6 0 11 5 11 10 0 6 -2 10 -4 10 -3 0
-8 -4 -11 -10z"/>
<path d="M792 254 c10 -10 20 -16 22 -13 3 3 -5 11 -17 18 -21 13 -21 12 -5
-5z"/>
<path d="M1480 10 c0 -5 5 -10 10 -10 6 0 10 5 10 10 0 6 -4 10 -10 10 -5 0
-10 -4 -10 -10z"/>
</g>
</svg>
